<?xml version="1.0" encoding="UTF-8"?>
<svg id="Livello_2" data-name="Livello 2" xmlns="http://www.w3.org/2000/svg" viewBox="0 0 182.75 182.75">
  <defs>
    <style>
      .cls-1 {
        fill: #ffde36;
      }

      .cls-2 {
        fill: #fff;
        opacity: .4;
      }
    </style>
  </defs>
  <g id="Livello_1-2" data-name="Livello 1">
    <path class="cls-1" d="m182.75,91.37c0,4.12-.27,8.17-.8,12.14-1.17,8.85-3.62,17.3-7.13,25.16-14.27,31.87-46.27,54.08-83.45,54.08-22.48,0-43.06-8.12-58.98-21.59-8.39-7.09-15.48-15.68-20.86-25.34C4.18,122.66,0,107.5,0,91.37c0-12.39,2.47-24.2,6.94-34.97,3.47-8.38,8.16-16.13,13.83-23.04C37.53,12.99,62.94,0,91.37,0c38.08,0,70.72,23.29,84.44,56.4,3.3,7.94,5.51,16.44,6.44,25.33.33,3.17.5,6.38.5,9.64Z"/>
    <path class="cls-2" d="m91.37,44.88c0,3.18-1.29,6.06-3.37,8.14-2.08,2.09-4.96,3.38-8.15,3.38H6.94c3.47-8.38,8.16-16.13,13.83-23.04h59.08c6.37,0,11.52,5.16,11.52,11.52Z"/>
    <path class="cls-2" d="m181.95,103.51c-1.17,8.85-3.62,17.3-7.13,25.16h-91c-6.36,0-11.52-5.16-11.52-11.52v-2.3c0-6.36,5.16-11.52,11.52-11.52h96.1c.69,0,1.37.06,2.03.18Z"/>
    <path class="cls-2" d="m110.44,147.34v2.3c0,6.36-5.16,11.52-11.52,11.52H32.39c-8.39-7.09-15.48-15.68-20.86-25.34h87.39c6.36,0,11.52,5.16,11.52,11.52Z"/>
    <path class="cls-2" d="m182.25,81.73h-18.79c-6.36,0-11.52-5.15-11.52-11.52v-2.29c0-6.36,5.16-11.52,11.52-11.52h12.35c3.3,7.94,5.51,16.44,6.44,25.33Z"/>
  </g>
</svg>