<?xml version="1.0" encoding="UTF-8"?>
<svg id="Livello_2" data-name="Livello 2" xmlns="http://www.w3.org/2000/svg" viewBox="0 0 114.26 133.73">
  <defs>
    <style>
      .cls-1 {
        fill: #ffde36;
      }

      .cls-2 {
        fill: #fcf7cd;
      }
    </style>
  </defs>
  <g id="Livello_1-2" data-name="Livello 1">
    <path class="cls-2" d="m3.49,87.7c-2.12-1.34-4.22-3.17-3.25-5.59,1.36-4.38,3.04-8.64,4.93-12.79,11.92-26.01,33.54-47.36,59.73-58.85C77.04,5.06,90.08,1.54,103.12,0c0,0,.2.98.2.98-19.31,5.79-37.57,14.14-53.28,26.67-10.92,8.73-20.42,19.27-27.79,31.14-5.14,8.22-9.39,17.04-12.25,26.3-.16,1.3-1.46,2.07-2.87,2.38-.7.18-1.46.34-2.66.43,0,0-.98-.2-.98-.2h0Z"/>
    <path class="cls-2" d="m22.53,133.64c-1.55-.71-2.44-1.45-3.26-2.55-.53-.8-.48-1.53-.35-2.24.2-1.44.42-2.87.64-4.29,1.36-8.55,3.2-17,5.46-25.35,8.08-28.94,22.35-60.95,49.21-76.84,1.75-.88,3.99-2.16,5.81-2.88,1.33-.55,2.66-1.08,3.99-1.6,0,0,.36.83.36.83-.78.44-3.85,2.32-4.53,2.7-.5.37-2.04,1.44-2.57,1.82-15.92,11.31-26.12,28.81-33.49,46.53-7.35,17.97-12.12,37.05-15.17,56.22-.21,1.37-.41,2.74-.59,4.11.03,1.26-.98,2.31-2.29,2.85-.6.28-1.28.55-2.35.79l-.9-.09h0Z"/>
    <path class="cls-2" d="m66.56,113.65c-2.19-.34-4.48-1.06-4.59-3.36-.44-3.98-.63-7.99-.61-11.98.05-26.37,9.87-52.93,28.05-72.11,7.24-7.54,15.41-14.08,24.34-19.18l.5.72c-7.81,6.58-15,13.72-21.07,21.66-12.1,15.77-19.72,34.55-22.03,54.22-1.05,8.5-1.2,17.13-.24,25.63.27,1.2-.12,2.36-3.49,4.22l-.86.17h0Z"/>
    <circle class="cls-1" cx="5.56" cy="82.05" r="4.52"/>
    <circle class="cls-1" cx="23.77" cy="128.19" r="3.86"/>
    <circle class="cls-1" cx="66.31" cy="108.37" r="3.86"/>
  </g>
</svg>