<?xml version="1.0" encoding="UTF-8"?>
<svg id="Livello_2" data-name="Livello 2" xmlns="http://www.w3.org/2000/svg" viewBox="0 0 181.76 179.94">
  <defs>
    <style>
      .cls-1, .cls-2 {
        fill: #0b0d16;
      }

      .cls-3 {
        fill: #878787;
      }

      .cls-2 {
        opacity: .4;
      }
    </style>
  </defs>
  <g id="Livello_1-2" data-name="Livello 1">
    <path class="cls-3" d="m178.92,84.09c6.48,9.12.48,17.12-4.25,25.46-1.2,2.37-2.22,4.72-3.04,7.12-2.52,6.97-3.32,14.4-2.41,22.27-.21,2.09-.46,4.1-.69,6.1-1.12,5.66-2.12,11.16-5.12,15.16-14,17-39,15-60.29,18.8-2.7.33-5.37.59-8.03.74-26.67,1.55-53.91-6.61-73.16-25.72-1.93-1.91-3.77-3.94-5.37-6.19-9.15-15.63-6.15-34.63-11.17-51.61-.37-2.09-.82-4.18-1.3-6.28-5.68-13.74-5.68-29.74,1.56-43.76.95-1.69,2.07-3.32,3.32-4.89,1.67-2.1,3.58-4.09,5.75-5.97,12.68-8.12,27.68-11.12,37.68-22.12C64.4,1.21,81.4-2.79,97.63,1.93c2.78.57,5.55,1.24,8.31,2,19.34,5.28,38.31,14.62,57.7,20.71,1.88,1.4,3.64,2.92,5.25,4.54,4.84,4.86,8.39,10.66,10.11,17.33.57,2.22.94,4.54,1.09,6.95.3,7.76-2.7,15.76-2.78,23.34.02,2.25.61,4.69,1.6,7.3Z"/>
    <path class="cls-1" d="m110.87,50.88c-5.47,9.33-5.47,20.33-13.94,27.51-.89.45-1.82.81-2.78,1.1-.83.25-1.69.44-2.56.57s-1.75.21-2.62.21c-8.62-3.65-16.77-7.26-25.03-11.38-.92-.46-1.84-.92-2.75-1.4-1.8-10.28-.8-19.28-3.76-28.86.28-.88.62-1.74,1-2.55,1.16-2.45,2.81-4.56,5.1-6.13.77-.47,1.59-.9,2.44-1.29,4.28-1.98,9.5-3.13,14.21-4.26.63-.26,1.25-.49,1.86-.69,15.75-5.08,24.67,10.57,28.93,24.47.02.92-.01,1.82-.11,2.71Z"/>
    <path class="cls-1" d="m57.29,134.07c2.12,10.13-8.88,10.13-15.65,10.16-.75,0-1.48-.07-2.19-.26-1.42-.39-2.8-1.26-4.05-2.76-2-4-3-8-1.25-13.5.25-.84.52-1.67.8-2.5.56-1.67,1.11-3.33,1.44-5,2-5,9-3,12.74-1.02.87.56,1.7,1.21,2.47,1.94,2.79,3.08,5.79,6.08,5.65,10.95.01.64.02,1.3.02,1.99Z"/>
    <path class="cls-1" d="m148.61,121.45c-.08,4.7-1.1,9.6-3.14,13.25-.51.91-1.09,1.75-1.73,2.48-9.34,9.02-22.34.02-30.34-5.98-.5-.5-.83-1.06-1.03-1.68.03-7.32,1.03-14.32.03-21.32-1-6,9-8,15.3-9.87.87-.19,1.75-.3,2.62-.36.87-.05,1.74-.04,2.59.04.93.01,1.84.13,2.73.36,4.45,1.12,8.64,4.93,12.52,10.03.39.51.72,1.07.99,1.67.8,1.78,1.03,3.85.73,5.91-.15.99-.41,1.98-.8,2.93-.16.81-.28,1.65-.45,2.53Z"/>
    <path class="cls-2" d="m144.12,119.04c-.08,4.7-1.1,9.6-3.14,13.25-.51.91-1.09,1.75-1.73,2.48-9.34,9.02-22.34.02-30.34-5.98-.5-.5-.83-1.06-1.03-1.68.03-7.32,1.03-14.32.03-21.32-1-6,9-8,15.3-9.87.87-.19,1.75-.3,2.62-.36.87-.05,1.74-.04,2.59.04.93.01,1.84.13,2.73.36,4.45,1.12,8.64,4.93,12.52,10.03.39.51.72,1.07.99,1.67.8,1.78,1.03,3.85.73,5.91-.15.99-.41,1.98-.8,2.93-.16.81-.28,1.65-.45,2.53Z"/>
    <path class="cls-2" d="m107.72,48.54c-5.47,9.33-5.47,20.33-13.94,27.51-.89.45-1.82.81-2.78,1.1-.83.25-1.69.44-2.56.57s-1.75.21-2.62.21c-8.62-3.65-16.77-7.26-25.03-11.38-.92-.46-1.84-.92-2.75-1.4-1.8-10.28-.8-19.28-3.76-28.86.28-.88.62-1.74,1-2.55,1.16-2.45,2.81-4.56,5.1-6.13.77-.47,1.59-.9,2.44-1.29,4.28-1.98,9.5-3.13,14.21-4.26.63-.26,1.25-.49,1.86-.69,15.75-5.08,24.67,10.57,28.93,24.47.02.92-.01,1.82-.11,2.71Z"/>
    <path class="cls-2" d="m54,134.07c2.12,10.13-8.88,10.13-15.65,10.16-.75,0-1.48-.07-2.19-.26-1.42-.39-2.8-1.26-4.05-2.76-2-4-3-8-1.25-13.5.25-.84.52-1.67.8-2.5.56-1.67,1.11-3.33,1.44-5,2-5,9-3,12.74-1.02.87.56,1.7,1.21,2.47,1.94,2.79,3.08,5.79,6.08,5.65,10.95.01.64.02,1.3.02,1.99Z"/>
  </g>
</svg>