<?xml version="1.0" encoding="UTF-8"?>
<svg id="Livello_2" data-name="Livello 2" xmlns="http://www.w3.org/2000/svg" viewBox="0 0 177.64 177.64">
  <defs>
    <style>
      .cls-1 {
        fill: #ffde35;
      }

      .cls-2 {
        fill: #fcf7cd;
      }
    </style>
  </defs>
  <g id="Livello_1-2" data-name="Livello 1">
    <path class="cls-1" d="m144.55,155.07c-1.22,0-2.44-.22-3.62-.68-14.52-5.64-33.02-8.75-52.11-8.75s-37.58,3.11-52.12,8.75c-1.17.46-2.4.68-3.62.68-2.6,0-5.16-1.02-7.07-2.93-2.8-2.8-3.69-6.99-2.25-10.69,5.64-14.55,8.75-33.06,8.75-52.12s-3.11-37.59-8.75-52.11c-1.44-3.69-.55-7.89,2.25-10.69,1.91-1.91,4.47-2.93,7.08-2.93,1.21,0,2.44.22,3.62.68,14.55,5.64,33.06,8.75,52.12,8.75s37.59-3.11,52.11-8.75c1.18-.46,2.4-.68,3.62-.68,2.6,0,5.16,1.02,7.07,2.93,2.8,2.8,3.69,7,2.25,10.69-5.64,14.52-8.75,33.02-8.75,52.11s3.11,37.58,8.75,52.12c1.43,3.7.55,7.89-2.25,10.69-1.91,1.91-4.47,2.93-7.07,2.93Z"/>
    <path class="cls-1" d="m135.13,89.33c0,21.15,3.54,40.56,9.43,55.74-15.18-5.9-34.59-9.43-55.73-9.43s-40.56,3.54-55.74,9.43c5.89-15.18,9.43-34.59,9.43-55.74s-3.53-40.55-9.43-55.73c15.18,5.89,34.59,9.43,55.74,9.43s40.55-3.53,55.73-9.43c-5.9,15.18-9.43,34.59-9.43,55.73Z"/>
    <path class="cls-2" d="m88.82,177.64c-3.96,0-7.55-2.34-9.15-5.97-6.29-14.28-17.19-29.56-30.67-43.04-13.49-13.49-28.78-24.38-43.03-30.66C2.34,96.38,0,92.79,0,88.82c0-3.96,2.34-7.55,5.97-9.15,14.28-6.3,29.56-17.19,43.05-30.67,13.49-13.49,24.38-28.78,30.66-43.03,1.6-3.63,5.19-5.97,9.15-5.97s7.56,2.34,9.15,5.97c6.28,14.26,17.16,29.54,30.66,43.03,13.48,13.48,28.77,24.37,43.05,30.67,3.63,1.6,5.97,5.19,5.97,9.15,0,3.96-2.34,7.55-5.97,9.15-14.26,6.28-29.54,17.16-43.03,30.66-13.48,13.48-24.37,28.77-30.67,43.04-1.6,3.63-5.19,5.97-9.15,5.97Z"/>
    <path class="cls-2" d="m121.56,56.07c14.96,14.96,31.18,26.18,46.08,32.75-14.91,6.56-31.13,17.79-46.08,32.74-14.96,14.96-26.18,31.18-32.75,46.08-6.57-14.9-17.79-31.13-32.75-46.08-14.95-14.95-31.17-26.18-46.08-32.74,14.9-6.57,31.13-17.79,46.08-32.75,14.95-14.95,26.18-31.17,32.74-46.08,6.56,14.91,17.79,31.13,32.74,46.08Z"/>
  </g>
</svg>