<?xml version="1.0" encoding="UTF-8"?>
<svg id="Livello_2" data-name="Livello 2" xmlns="http://www.w3.org/2000/svg" viewBox="0 0 193.08 218">
  <defs>
    <style>
      .cls-1 {
        fill: #69b5c4;
      }

      .cls-2 {
        fill: #e3eff6;
      }

      .cls-3 {
        fill: #fcfbfc;
      }

      .cls-4 {
        fill: #6794a9;
      }

      .cls-5 {
        fill: #91cedc;
      }

      .cls-6 {
        fill: #b4b4c3;
      }

      .cls-7 {
        fill: #89c3d0;
      }

      .cls-8 {
        fill: #8b8ea1;
      }

      .cls-9 {
        fill: #8f9cac;
      }

      .cls-10 {
        fill: #c2cbd7;
      }

      .cls-11 {
        fill: #aa9aa6;
      }

      .cls-12 {
        fill: #aa8d98;
      }

      .cls-13 {
        fill: #afdce6;
      }

      .cls-14 {
        fill: #d8d8e0;
      }

      .cls-15 {
        fill: #aaadbc;
      }

      .cls-16 {
        fill: #c8e3f0;
      }

      .cls-17 {
        fill: #d1e0eb;
      }

      .cls-18 {
        fill: #accad8;
      }

      .cls-19 {
        fill: #356c87;
      }

      .cls-20 {
        fill: #438ca0;
      }

      .cls-21 {
        fill: #707187;
      }

      .cls-22 {
        fill: #717d93;
      }

      .cls-23 {
        fill: #89acc0;
      }

      .cls-24 {
        fill: #566f84;
      }

      .cls-25 {
        fill: #647d93;
      }

      .cls-26 {
        fill: #347990;
      }

      .cls-27 {
        fill: #5da3b4;
      }

      .cls-28 {
        fill: #616b84;
      }

      .cls-29 {
        fill: #7b879d;
      }
    </style>
  </defs>
  <g id="Livello_1-2" data-name="Livello 1">
    <g>
      <path class="cls-12" d="m57.4,181.23c-2.95,2.29-5.93,4.55-8.86,6.87-4.11,3.27-8.26,6.49-12.23,9.92-2.59,2.24-4.13,5.36-5.92,8.25-1.88,3.03-3.98,5.9-6.9,8.04-1.11.81-2.2,1.73-3.45,2.28-1.32.6-2.8.82-4.21,1.21-.13.03-.24.13-.36.2h-2.67c-1.18-.36-2.35-.76-3.54-1.08-2.98-.8-5.28-2.62-6.85-5.15C.76,209.12.07,206.16,0,202.92c-.07-3.59,1.2-6.65,2.7-9.68,4.77-9.64,9.64-19.22,14.41-28.85,5.43-10.95,11.9-21.3,18.25-31.72,1.1-1.8,2.22-3.58,3.33-5.38.28,0,.57,0,.85,0-.51,1.06-.95,2.17-1.55,3.17-1.07,1.8-2.29,3.52-3.35,5.32-1.85,3.14-3.6,6.33-5.44,9.47-2.28,3.9-4.66,7.73-6.89,11.65-1.27,2.24-2.32,4.6-3.48,6.9-1.37,2.69-2.87,5.33-4.12,8.08-1.88,4.12-3.61,8.31-5.38,12.48-1.33,3.13-2.63,6.27-3.91,9.41-.66,1.6-1.31,3.21-1.86,4.86-.63,1.86-.95,3.79-.56,5.75.25,1.3.36,2.7.95,3.83,1.67,3.19,4.25,5.42,7.91,6.07,2.29.41,4.53.06,6.74-.72,2.97-1.06,4.71-3.5,6.6-5.74,1.27-1.51,2.3-3.22,3.41-4.87.41-.61.58-1.42,1.08-1.91,2.08-2.04,4.22-4.03,6.4-5.97.88-.78,1.92-1.37,2.89-2.03,1.57-1.06,3.16-2.09,4.71-3.17.88-.61,1.7-1.3,2.54-1.96,2.24-1.77,4.91-2.94,6.77-5.25.78-.97,2.01-1.57,3.04-2.33.45.3.91.59,1.36.89Z"/>
      <path class="cls-19" d="m189.78,13.01c.37.33.61.55,1,.9-.86.64-1.68,1.25-2.58,1.93.06.08.25.33.45.62,0,.02.01.1-.01.16-.41.91-.84,1.82-1.23,2.73-.19.45-.2,1.23-.48,1.34-2.26.84-2.35,3.03-2.63,4.75-.29,1.81-1.25,2.33-2.66,2.63-.75.16-.96.4-.62,1.12.17.35.33.83.23,1.17-.18.55-.46,1.26-.9,1.5-.93.5-1.53,1.05-1.82,2.14-.26.99-.95,1.87-1.48,2.79-.5.86-1,1.72-1.55,2.56-.41.63-.81,1.31-1.36,1.79-1.48,1.3-2.34,2.94-3.2,4.68-.6,1.21-.59,2.72-1.78,3.67-.26.21-.26.74-.38,1.13-1.1-.04-1.81.38-2.01,1.56-.27,1.55-1.33,2.67-2.32,3.79-1.24,1.39-2.56,2.73-3.84,4.08-.28.28-.58.54-.93.87-.19-.3-.32-.51-.45-.72-.1-1.7.2-3.2,1.7-4.31.39-.29.53-.92.74-1.42.18-.4.25-.85.43-1.24.89-1.96,1.75-3.93,2.72-5.84.47-.94,1.09-1.83,1.76-2.63.72-.88,1.69-1.56,2.36-2.46.56-.75.93-1.66,1.21-2.56.55-1.74,1.08-3.44,2.75-4.53.4-.26.74-.9.77-1.39.1-1.42.7-2.52,1.7-3.5.43-.42.69-1.01.98-1.56.3-.57.53-1.18.82-1.76.2-.39.54-.73.66-1.15.64-2.32,1.5-4.59,1.26-7.11-.17-1.92-.76-2.52-2.64-2.13-1.2.25-2.11-.33-2.29-1.53-.09-.64.01-1.3-.04-1.95-.04-.48-.2-.95-.3-1.43-.45.26-.9.5-1.32.78-.14.1-.19.32-.31.46-.66.74-1.26,1.56-2.01,2.2-.79.69-1.72,1.22-2.59,1.82-.24.17-.47.36-.71.52-1.36.91-2.79,1.74-4.06,2.75-.79.63-1.12.6-1.57-.27-.57-1.11-.82-1.14-1.86-.39-.41.29-.73.71-1.11,1.06-.35.32-.69.66-1.09.91-.82.5-1.69.91-2.49,1.41-.92.58-1.71.43-2.38-.32-.27-.29-1.01-.55-1.26-.39-.64.41-1.16,1.03-1.65,1.64-.42.51-.6,1.32-1.55.9.23-.57.43-1.15.7-1.69.25-.5.57-.96.86-1.44.67-.37,1.34-.74,2-1.11.15-.15.3-.3.45-.45.29-.36.57-.71.85-1.06.35-.44.66-.94,1.07-1.32.61-.58,1.3-1.06,1.95-1.6.69-.59,1.43-1.14,2.01-1.83.71-.85,1.52-1.75,1.85-2.77.61-1.92,1.88-3.04,3.63-3.78.5-.21.99-.33.89-1.02.07-.06.15-.12.23-.18.93-1.12,2.18-.99,3.46-.88.1,1.24.18,2.44.3,3.64.09,1.01.61,1.17,1.4.63,1.01-.69,1.98-1.36,3.31-1.31.28.01.86-.61.84-.9-.09-.98.51-1.4,1.18-1.78,2.31-1.31,4.64-2.58,6.93-3.9.91-.53,1.71-1.25,2.63-1.75,1.12-.61,1.72-.2,1.81,1.05.02.28.03.65.2.82.3.31.73.5,1.1.74.15-.33.33-.66.45-1.01.07-.2.04-.43.06-.77,1.6.38,3.14.73,4.78,1.11.58,1.85.2,3.8-.54,5.64-.7,1.76-.42,3.98-2.48,5.15Z"/>
      <path class="cls-29" d="m141.62,105.67c-.47,1.23-.94,2.46-1.41,3.68-.08.21-.17.43-.32.59-1.01,1.1-1.95,2.24-1.87,3.87,0,.09-.1.19-.16.28-1.33,1.92-2.87,3.67-4.53,5.32-.56.57-1.16,1.1-1.74,1.64-.73.55-1.54,1.01-2.17,1.65-2.02,2.04-3.68,4.38-6.35,5.85-1.81,1.01-3.17,2.84-4.72,4.31-.17.17-.34.45-.33.67.05,1-.64,1.4-1.31,1.89-.53.38-.96.89-1.44,1.33-.92.85-1.83,1.69-2.74,2.53-.27.24-.58.45-.85.71-1.13,1.09-2.2,2.26-3.39,3.27-1.52,1.29-3.15,2.44-4.71,3.68-4.56,3.62-9.12,7.26-13.67,10.89-1.06.51-2.11,1.03-3.17,1.54-.35.17-.7.33-1.05.5.16-.44.22-.98.51-1.3,1.47-1.63,3.01-3.2,4.53-4.79.51-.53.98-1.1,1.53-1.58,1.63-1.42,3.3-2.8,4.93-4.23.46-.41.76-1.02,1.23-1.42,1.58-1.33,3.19-2.61,4.79-3.91.99-.8,2.17-1.4,2.16-3-.01-.44.6-1.06,1.08-1.29,1.98-.96,3.23-2.56,4.44-4.33,1.1-1.62,2.48-3.06,3.75-4.57.07-.08.21-.1.28-.18.64-.68,1.25-1.39,1.91-2.05.24-.25.62-.36.88-.6.35-.34.66-.73.95-1.13.4-.58.64-1.49,1.18-1.71,1.14-.48,1.44-1.31,1.76-2.34.2-.64.62-1.55,1.12-1.69,1.5-.44,2.09-1.54,2.61-2.77.48-1.13.32-2.16-.54-3.08-.23-.24-.33-.61-.5-.91.35-.14.71-.28,1.06-.41.12-.05.24-.11.28-.13-.39-.54-.83-.98-1.09-1.52-.69-1.46-1.58-2.88-1.23-4.63.02-.1-.27-.27-.41-.4.13-.33.28-.65.41-.98.22-.58.61-1.18.59-1.75-.08-1.81-.19-3.58,1.27-5,.15-.15.08-.51.19-.73.44-.8.72-1.95,1.4-2.29,2.15-1.06,2.32-3.5,3.84-4.95.55-.53.87-1.3,1.34-1.92.65-.85,1.6-1.56,1.96-2.51.7-1.83,2.66-2.14,3.7-3.49.08.75-.22,1.22-.91,1.59-.48.27-.91.72-1.24,1.18-1.03,1.48-2.15,2.92-2.95,4.52-.85,1.72-2.08,3.34-2.02,5.41-.24.84-.44,1.69-.72,2.53-.25.78-.33,1.48.34,2.14.2.2.16.64.24.97.11.47.21.94.32,1.41.35-.3.7-.61,1.06-.91.05-.03.13-.02.29-.04.57.81,1.18,1.63,1.75,2.49.4.62.43,1.22-.17,1.8-.18.19-.34.62-.25.83.56,1.36,1.81,1.6,3.08,1.69.99.07,1.49-.66,1.75-1.43.29-.84.79-1.1,1.59-1.01.62.07,1.24.15,1.86.22Z"/>
      <path class="cls-8" d="m124.79,113.9c.86.92,1.02,1.95.54,3.08-.52,1.23-1.11,2.33-2.61,2.77-.5.14-.92,1.05-1.12,1.69-.32,1.03-.62,1.86-1.76,2.34-.54.22-.78,1.13-1.18,1.71-.29.4-.6.79-.95,1.13-.26.24-.64.35-.88.6-.66.66-1.27,1.37-1.91,2.05-.07.08-.21.1-.28.18-1.27,1.51-2.65,2.95-3.75,4.57-1.21,1.77-2.46,3.37-4.44,4.33-.48.23-1.09.85-1.08,1.29.01,1.6-1.17,2.2-2.16,3-1.6,1.3-3.21,2.58-4.79,3.91-.47.4-.77,1.01-1.23,1.42-1.63,1.43-3.3,2.81-4.93,4.23-.55.48-1.02,1.05-1.53,1.58-1.52,1.59-3.06,3.16-4.53,4.79-.29.32-.35.86-.51,1.3-1.64,1.2-3.27,2.39-4.91,3.59-4.09,2.99-8.21,5.94-12.25,9-3.07,2.32-6.02,4.79-9.03,7.19-.68.55-1.4,1.06-2.1,1.58-.45-.3-.91-.59-1.36-.89.71-.99,1.33-2.06,2.15-2.95.97-1.05,2.11-1.93,3.15-2.92,1.09-1.04,2.14-2.13,3.23-3.17,1.18-1.13,2.58-1.97,3.74-3.2,2.76-2.9,5.83-5.52,8.77-8.27.17-.16.24-.44.36-.66.35-.18.75-.31,1.07-.54,1.13-.81,2.23-1.65,3.35-2.47,1.73-1.26,3.45-2.51,4.67-4.34.28-.43.93-.78,1.46-.87,2.11-.33,3.68-1.48,5.04-3.04.95-1.08,1.87-2.19,2.84-3.26.74-.81,1.6-1.52,2.31-2.36,1.14-1.33,2.58-2.45,2.95-4.36.13-.63.41-1.83,1.63-.91.04.03.14.01.21-.02,2.09-.83,3.67-2.38,4.82-4.19.69-1.09.67-2.61,1.09-3.9.31-.95.51-1.8-.17-2.68-.12-.16-.04-.63.11-.82,1.02-1.28-.02-3.28,1.55-4.34.04-.03.03-.14.04-.22.15-.75.3-1.5.45-2.25.47-.45.87-1.17,1.42-1.32,1.91-.5,2.63-2.25,3.79-3.47,1.91-2,3.49-4.29,5.25-6.43.45-.55,1.05-.99,1.58-1.48.14.13.43.3.41.4-.35,1.75.54,3.17,1.23,4.63.26.54.7.98,1.09,1.52-.04.02-.16.08-.28.13-.35.13-.71.27-1.06.41.17.3.27.67.5.91Z"/>
      <path class="cls-8" d="m118.66,26.77h0c-.26.23-.56.43-.78.69-.57.69-1.02,1.51-1.68,2.1-1.25,1.13-1.98,2.56-2.67,4.04-1.02,2.17-2.05,4.33-3.1,6.48-.22.46-.85.86-.83,1.26.04,1.01-.48,1.47-1.23,1.89-.15.09-.28.26-.36.42-.85,1.67-1.69,3.35-2.54,5.02-.46.89-.74,2.16-1.47,2.53-1.52.79-1.55,2.25-2.17,3.45-.42.82-.91,1.63-1.21,2.5-.14.44-.11,1.24.16,1.46.73.57.66,1.11.4,1.84s-.18,1.59.67,1.69c.74.08,1.88-.08,2.26-.57,1.02-1.33,2.23-1.39,3.63-1.14-.22.67-.44,1.34-.67,2.01-.36.2-.81.33-1.07.63-1.07,1.24-2.08,2.42-3.93,2.61-1.16.12-2.36.51-3.18,1.59-.2.25-1.03.3-1.39.11-2.17-1.14-2.69-2.43-2.06-4.89.89.05,1.25-.37,1.18-1.28-.02-.3.14-.65.29-.94,1.32-2.47,1.84-5.32,3.63-7.59.41-.52.38-1.4.51-2.12.06-.36-.02-.75.07-1.1.14-.5.33-1.03-.35-1.16-.65-.13-.96.26-1.09.94-.07.41-.46,1.09-.7,1.08-1.5-.03-2.42,1.02-3.55,1.68-.92.53-1.83,1.08-2.68,1.71-1.76,1.32-2.66,3.32-3.91,5.04-.84,1.16-1.8,2.24-2.73,3.33-1.12,1.31-2.32,2.56-3.38,3.91-1.23,1.55-2.35,3.18-3.5,4.79-1,1.41-1.98,2.82-2.96,4.25-.46.66-.91,1.34-1.32,2.04-.61,1.04-1.25,2.08-1.76,3.18-.79,1.69-1.4,3.47-2.25,5.14-.97,1.91-2.02,3.81-3.23,5.59-1.26,1.84-2.74,3.54-4.15,5.28-.87,1.08-1.75,2.15-2.68,3.19-.68.75-1.47,1.41-2.14,2.17-1,1.13-1.93,2.31-2.89,3.47-.61.72-1.21,1.43-1.82,2.15-.38.42-.79.81-1.14,1.26-1.33,1.71-2.7,3.41-3.96,5.17-2.51,3.53-4.96,7.1-7.43,10.66-.67.98-1.3,1.98-1.96,2.97-.28,0-.57,0-.85,0,5.21-8.75,10.82-17.24,16.83-25.46,1.89-2.6,3.76-5.21,5.69-7.77.81-1.08,1.73-2.07,2.6-3.09.41-.22.92-.34,1.2-.66.98-1.14,1.99-2.28,2.79-3.55,1.3-2.06,2.48-4.2,3.64-6.35,1.12-2.11,1.99-4.36,3.25-6.38,2.39-3.85,4.97-7.58,7.48-11.36.07-.1.24-.14.35-.22.37-.26.83-.46,1.07-.81,2.12-3.01,4.13-6.11,6.91-8.57,1.13-.99,2.42-1.8,3.65-2.66.88-.62,2.06-.87,2.36-2.17.07-.3.56-.47.78-.76.83-1.09,1.62-2.21,2.43-3.32.89-1.19,1.78-2.38,2.67-3.57.28-.19.67-.31.81-.57.44-.81.84-1.65,1.17-2.51.42-1.09,1-2.19,1.09-3.32.15-1.92,1.12-3.45,2.05-4.96.58-.95,1.6-1.67,2.53-2.34,1.33-.96,2.82-1.69,4.12-2.68,1.02-.77,3.95-.48,4.29.72.17.59.15,1.23.21,1.84Z"/>
      <path class="cls-28" d="m151.87,20.09c-.15.15-.3.3-.45.45-.67.29-1.33.59-2,.88-.91.27-2.05-.11-2.63,1.04-.06.12-.49.05-.74.08-1.76.19-3.16.93-4.13,2.47-.27.43-.73.83-1.2,1.05-1.21.57-2.6.81-2.93,2.49-.14.67-.88.99-1.61.67-.52-.23-.98-.59-1.47-.89.49-1.5.99-3.01,1.47-4.52.11-.34.25-.75.16-1.06-.11-.38-.45-.7-.7-1.05-.33.24-.77.42-.96.74-1.08,1.79-1.11,1.81-3.05,1.38-.24-.06-.63.12-.82.31-.82.85-1.43,2.04-2.41,2.55-1.87.98-2.33,3.13-3.96,4.21-.4.27-.93.34-1.39.5-.13-.43-.3-.86-.36-1.31-.19-1.38.7-2.33,1.42-3.35.22-.32.47-.64.64-.99,1.08-2.21,2.18-4.4,3.18-6.64.7-1.55,1.29-3.14,1.86-4.74.32-.92.6-1.67,1.68-2.1.77-.31,1.23-1.32,1.9-1.94.63-.58,1.36-1.06,2.04-1.59-.76,2.62-2.71,4.6-3.88,7-.45.92-.71,1.74-.53,2.74,1,.21,1.76-.22,2.34-.91.93-1.09,1.75-2.27,2.68-3.35.3-.36.78-.64,1.22-.78.89-.3,1.85-.4,2.72-.73.57-.22,1.23-.6,1.49-1.09.74-1.41,2.19-1.56,3.35-2.31.08.21.17.32.15.4-.44,1.57-.91,3.12-1.33,4.69-.13.45-.07.96-.23,1.39-.23.57-.48,1.2-.91,1.61-.73.72-1.17,1.91-.78,2.92.88-.45,2.22-.22,2.24-1.84,0-.19.6-.47.96-.56.8-.2,1.5-.26,1.99-1.22.35-.71,1.45-1.01,2.12-1.61.77-.68,1.22-1.75,2.41-1.9.22.34.57.65.64,1.02.41,1.97.47,3.94-.19,5.89Z"/>
      <path class="cls-24" d="m167.38,53.81c.1.33.21.7.37,1.21-.39-.07-.67-.12-1.19-.21-.77,1.91-1.58,3.84-2.31,5.81-.18.5-.13,1.1-.11,1.65.04,1.38.01,2.73-.74,3.95-1.61.72-3.49.81-4.32,2.94-.43,1.08-1.87,1.72-2.74,2.66-.62.65-1.05,1.47-1.57,2.21-1.86.96-3.71,1.93-5.57,2.89h-.23c.08-.96.15-1.93.24-2.9.03-.28.07-.59.2-.84.73-1.41.99-3.11,2.47-4.06,1.45-.59,2.24-1.79,2.89-3.15.27-.58.61-1.3,1.12-1.56,1.27-.63,1.71-1.72,2.17-2.91.2-.51.77-.87,1.17-1.3.13.21.26.42.45.72.35-.33.65-.59.93-.87,1.28-1.35,2.6-2.69,3.84-4.08.99-1.12,2.05-2.24,2.32-3.79.2-1.18.91-1.6,2.01-1.56.32,1.38-.53,2.25-1.4,3.19Z"/>
      <path class="cls-29" d="m99.72,44.16c-.81,1.11-1.6,2.23-2.43,3.32-.22.29-.71.46-.78.76-.3,1.3-1.48,1.55-2.36,2.17-1.23.86-2.52,1.67-3.65,2.66-2.78,2.46-4.79,5.56-6.91,8.57-.24.35-.7.55-1.07.81-.11.08-.28.12-.35.22-2.51,3.78-5.09,7.51-7.48,11.36-1.26,2.02-2.13,4.27-3.25,6.38-1.16,2.15-2.34,4.29-3.64,6.35-.8,1.27-1.81,2.41-2.79,3.55-.28.32-.79.44-1.2.66.68-1.01,1.38-2,2.03-3.03.22-.35.3-.79.44-1.19,1.16-.43,1.7-1.4,2.23-2.44,1.12-2.16,2.3-4.29,3.44-6.43.31-.59.55-1.21.89-1.78,1.67-2.82,3.35-5.64,5.06-8.44,1.01-1.67,2.03-3.34,3.14-4.95,1.59-2.32,3.28-4.59,4.9-6.9.34-.48.64-.99.91-1.52.74-1.43,2.11-2.22,3.23-3.27,1.36-1.29,2.65-2.64,3.99-3.96.16-.16.37-.27.55-.38.09.54.18.99.26,1.45.51-.25,1.1-.42,1.51-.78,1.15-1.02,2.22-2.12,3.33-3.19Z"/>
      <path class="cls-24" d="m164.12,6.7h0c.1.7-.39.82-.89,1.03-1.75.74-3.02,1.86-3.63,3.78-.33,1.02-1.14,1.92-1.85,2.77-.58.69-1.32,1.24-2.01,1.83-.65.54-1.34,1.02-1.95,1.6-.41.38-.72.88-1.07,1.32-.28.35-.56.7-.85,1.06.66-1.95.6-3.92.19-5.89-.07-.37-.42-.68-.64-1.02.69-.57,1.42-1.1,2.07-1.72,1.56-1.5,3.32-2.72,5.4-3.31,1.19-.34,2.17-1.32,3.59-1.03.5.1,1.09-.27,1.64-.42Z"/>
      <path class="cls-21" d="m28.75,137.88c-.08.11-.17.22-.25.32-.04-.03-.09-.05-.13-.08.08-.13.15-.25.23-.37.05.05.1.09.15.13Z"/>
      <path class="cls-24" d="m164.35,6.53c-.08.06-.15.12-.23.18.08-.06.15-.12.23-.18Z"/>
      <path class="cls-21" d="m28.89,137.59c-.05.1-.09.2-.14.29-.05-.04-.1-.08-.15-.13.04-.11.08-.21.12-.31.06.05.11.1.17.15Z"/>
      <path class="cls-11" d="m39.55,127.3c.65-.99,1.29-1.99,1.96-2.97,2.47-3.56,4.92-7.13,7.43-10.66,1.26-1.77,2.62-3.46,3.95-5.17.35-.45.76-.84,1.14-1.26-.3.63-.53,1.31-.91,1.88-1.36,2.04-2.79,4.04-4.17,6.06-.87,1.27-1.73,2.56-2.56,3.86-.89,1.38-1.79,2.75-2.61,4.17-.51.88-.89,1.83-1.33,2.75-.55.78-1.13,1.53-1.63,2.34-.98,1.6-1.87,3.25-2.87,4.84-2.29,3.6-4.68,7.14-6.92,10.78-2.07,3.36-4.01,6.8-6.01,10.2-.56.96-1.22,1.87-1.69,2.87-.61,1.28-1.08,2.63-1.61,3.96,0,0-.02.02-.02.02-.29.44-.58.88-.87,1.32-.16.45-.31.9-.47,1.35-.29.51-.58,1.03-.87,1.54-.48.98-.98,1.94-1.45,2.93-1.12,2.34-2.25,4.67-3.32,7.03-.91,2.02-1.59,4.16-2.66,6.08-.98,1.78-1.68,3.59-1.96,5.59-.14.15-.28.29-.43.44,0,.15-.01.3-.02.46-1.17.5-.82,1.54-.88,2.44,0,.15,0,.3,0,.45-.09.06-.23.1-.27.19-1.39,3.2-3.03,6.34-3.64,9.8-.36,2.05-.38,4.23.74,6.17.55.95,1.24,1.82,1.8,2.76,1.06,1.78,2.8,2.52,4.68,2.89,1.13.22,2.34.14,3.49,0,1.19-.14,2.45-.31,3.5-.84,2.06-1.05,3.63-2.71,4.85-4.69.46-.75,1.02-1.44,1.51-2.18,1.1-1.67,1.19-3.95,3.17-5.09.57-.33,1.07-.8,1.52-1.28,3.42-3.61,7.37-6.59,11.38-9.49,1.58-1.15,3.18-2.27,4.72-3.47,1.01-.79,1.86-1.78,2.89-2.53,1.6-1.16,3.08-2.44,4.93-3.31,1.56-.74,2.77-2.3,4.02-3.61,1.64-1.72,3.13-3.57,4.73-5.33.93-1.03,1.94-1.99,2.93-2.98.6-.6,1.19-1.2,1.81-1.76,1.17-1.05,2.36-2.08,3.54-3.12.08-.07.13-.18.21-.26,1.37-1.35,2.74-2.7,4.14-4.03.13-.13.42-.09.63-.14.45.3.9.6,1.35.89-.12.22-.18.5-.36.66-2.93,2.75-6.01,5.37-8.77,8.28-1.16,1.22-2.55,2.06-3.74,3.2-1.09,1.04-2.14,2.13-3.23,3.17-1.04.99-2.18,1.87-3.15,2.92-.82.89-1.44,1.96-2.15,2.94-1.03.77-2.26,1.36-3.04,2.33-1.86,2.32-4.53,3.48-6.77,5.25-.84.66-1.66,1.35-2.54,1.97-1.55,1.08-3.14,2.1-4.71,3.16-.98.66-2.01,1.26-2.89,2.03-2.18,1.94-4.32,3.93-6.41,5.97-.5.49-.67,1.3-1.08,1.91-1.1,1.65-2.14,3.36-3.41,4.87-1.89,2.24-3.62,4.68-6.59,5.74-2.21.79-4.45,1.13-6.75.73-3.66-.65-6.23-2.88-7.91-6.08-.59-1.13-.7-2.53-.95-3.82-.39-1.97-.07-3.9.56-5.76.55-1.64,1.2-3.25,1.86-4.86,1.28-3.14,2.58-6.28,3.91-9.41,1.77-4.17,3.5-8.36,5.38-12.48,1.25-2.75,2.75-5.39,4.12-8.09,1.17-2.3,2.21-4.66,3.48-6.89,2.23-3.92,4.61-7.76,6.89-11.65,1.84-3.14,3.59-6.34,5.44-9.47,1.06-1.8,2.28-3.52,3.35-5.31.6-1.01,1.04-2.11,1.55-3.17Z"/>
      <path class="cls-25" d="m146.79,22.46c-.06.12-.49.05-.74.08-1.76.19-3.16.93-4.13,2.47-.27.43-.73.83-1.2,1.05-1.21.57-2.6.81-2.93,2.49-.14.67-.88.99-1.61.67-.52-.23-.98-.59-1.47-.89-.7.3-1.38.7-2.12.87-1.1.26-1.64.77-1.67,1.93-.01.66.03,1.33-.01,1.99-.06.95-.38,1.67-1.55,1.46-.1.8-.21,1.6-.31,2.4-.1.78.3,1.13,1.04.87.34-.11.65-.35.92-.59.72-.61,1.39-1.3,2.13-1.88,1.11-.87,2.27-1.68,3.4-2.52.22-.16.43-.32.65-.48-.35,1.35-.89,2.56-1.49,3.73-.11.22-.5.29-.75.44-1,.59-2.07,1.09-2.97,1.81-1.23.98-2.35,2.09-3.46,3.21-.99.99-2.12,1.25-3.31.61-1.4-.75-2.73-.65-4.09-.03.14,1.61-1.12,2.58-1.74,3.84-.58,1.2-1.17,2.4-1.8,3.68.32,0,.55.06.74,0,.94-.33,1.48-.19,1.5.98.01.36.35.89.66,1.01.31.11.79-.18,1.17-.35.79-.35,1.57-.75,2.36-1.12h0c.63-1.46,1.67-2.5,3.12-3.12,1.26-1.11,2.42-2.37,3.81-3.29,1.12-.75,2.5-1.09,3.77-1.61-.07-1,.84-.96,1.37-1.34.45-.32,1.13-.75,1.15-1.16.06-1.64,1.39-2.14,2.3-3.08,1.13-1.15,2.06-2.51,3.01-3.82.44-.6.73-1.31,1.09-1.97-.56.27-1.12.54-1.87.89.01-.3-.13-.85.08-1.15.99-1.42,2.16-2.66,3.85-3.32.41-.17.7-.68,1.03-1.05.39-.45.76-.92,1.14-1.38.23-.57.43-1.15.7-1.69.25-.5.57-.96.86-1.44v-.23c-.91.27-2.05-.11-2.63,1.04Zm-8.46,9.69c-.11-.15-.23-.3-.34-.46.52-.31,1.05-.63,1.58-.95.08.13.17.25.26.37-.5.35-1,.7-1.5,1.04Z"/>
      <path class="cls-26" d="m143.64,30.79c-.56.27-1.13.54-1.87.89.01-.31-.13-.86.08-1.16.99-1.42,2.16-2.65,3.85-3.32.42-.17.71-.67,1.03-1.05.39-.45.76-.92,1.14-1.38.94.43,1.13-.39,1.55-.9.49-.6,1.01-1.22,1.65-1.64.25-.16,1,.1,1.26.4.67.74,1.46.89,2.38.32.81-.51,1.68-.92,2.49-1.42.4-.25.74-.59,1.1-.91.38-.34.69-.77,1.1-1.06,1.05-.75,1.29-.72,1.86.39.45.87.78.91,1.56.28,1.27-1.02,2.7-1.84,4.06-2.75.24-.16.47-.35.71-.52.87-.6,1.8-1.13,2.59-1.82.75-.65,1.35-1.46,2.01-2.21.12-.14.17-.36.31-.45.42-.28.88-.53,1.32-.78.1.48.26.95.3,1.43.06.64-.05,1.31.04,1.94.18,1.21,1.09,1.79,2.29,1.54,1.88-.39,2.47.2,2.65,2.13.23,2.51-.63,4.78-1.27,7.11-.11.41-.46.75-.66,1.15-.29.58-.52,1.19-.82,1.76-.29.54-.55,1.14-.98,1.56-1,.98-1.6,2.07-1.7,3.5-.03.49-.37,1.13-.77,1.39-1.67,1.09-2.2,2.78-2.75,4.53-.28.89-.66,1.81-1.21,2.55-.67.9-1.64,1.59-2.37,2.46-.67.81-1.28,1.7-1.76,2.63-.97,1.92-1.83,3.88-2.72,5.84-.18.4-.26.84-.43,1.25-.21.49-.36,1.13-.75,1.42-1.5,1.11-1.8,2.61-1.7,4.31-.4.43-.97.79-1.17,1.3-.46,1.19-.9,2.28-2.17,2.91-.51.26-.85.98-1.13,1.56-.64,1.36-1.43,2.55-2.89,3.15.02-.48-.05-.99.08-1.43.41-1.35.48-2.8,1.38-4.02.62-.85.36-1.01-.64-1.14-.91-.12-1.25.33-1.77.9-1.1,1.22-2.33,2.31-3.51,3.46-.56.07-1.12.14-1.68.21-.1-.11-.2-.22-.29-.33.79-1.16,1.58-2.33,2.38-3.49.28-.41.67-.76.85-1.21,1-2.45,1.7-5.07,4.14-6.62.19-.12.36-.45.35-.66-.09-1.12.67-1.72,1.31-2.45.69-.79,1.64-1.53,1.38-2.76-.29-1.38.03-2.65.6-3.84.45-.94,1.26-1.72,1.71-2.66,1.03-2.17,1.93-4.39,2.94-6.74-.7-.34-1.48-.74-2.27-1.11-.58-.27-.92-.56-.51-1.28.11-.2-.14-.82-.39-.97-.62-.37-1.22-.22-1.81.3-.44.39-1.04.73-1.61.82-1.67.27-2,.48-2.4,2.11-.26,1.07-.66,1.97-1.66,2.62-.8.52-1.43,1.31-2.12,1.99-.33.32-.6.91-.97.97-1.87.29-3.13,1.56-4.55,2.58-.41.29-.98.36-1.58.57-.15-1.53.48-2.41,1.24-3.22.32-.34.69-.66.92-1.06.72-1.24,1.39-2.46,2.68-3.3.54-.35.85-1.19,1.08-1.87.27-.8.3-1.68.53-2.5.37-1.32-.22-2.19-1.6-2.21-.82-.01-1.63,0-2.45,0Z"/>
      <path class="cls-24" d="m149.42,21.65c0-.07,0-.15,0-.22.67-.3,1.34-.59,2.01-.89-.67.37-1.33.74-2,1.11Z"/>
      <path class="cls-22" d="m148.98,76.92c.08,0,.15,0,.23,0,.02.48-.11,1.03.09,1.42.59,1.14.35,2.13-.25,3.14-.66,1.11-.62,2.22-.02,3.36,1,1.91,1.94,3.85,2.93,5.81,1.59-.22,1.87-.02,2.39,1.65.12.4.43.74.66,1.11,0,.22,0,.45,0,.67-.62.07-1.27.07-1.85.25-.41.12-.98.45-1.05.78-.18.86-.22,1.78-.13,2.66.07.68-1.21,2.57-1.87,2.48-.1-.01-.27-.1-.27-.15,0-1.26-.8-1.54-1.85-1.58-.12,0-.21-.2-.34-.27-1.02-.58-2.07-.46-2.64.23-.37.44-.8.83-1.23,1.22-.69.64-1.62,1.13-1.11,2.38.1.25-.13.74-.35.98-.7.77-1.01,1.6-.68,2.62-.62-.07-1.24-.15-1.86-.22-.8-.09-1.3.17-1.59,1.01-.26.76-.76,1.5-1.75,1.43-1.27-.09-2.52-.33-3.08-1.69-.09-.21.07-.64.26-.83.6-.58.57-1.18.16-1.8-.56-.86-1.18-1.69-1.74-2.49-.16.02-.25,0-.29.05-.36.3-.71.61-1.06.91-.11-.47-.22-.94-.32-1.42-.07-.33-.04-.77-.24-.97-.67-.66-.59-1.36-.33-2.14.27-.83.48-1.69.72-2.53,1.89-.74,3.65-1.71,5.05-3.2.43-.46.62-1.14,1-1.65.32-.44.75-.8,1.16-1.17.21-.19.48-.32.71-.49,1.08-.81,2.07-1.77,3.25-2.39,1.57-.83,2.74-1.78,2.91-3.68.07-.76.38-1.49,1.34-1.68,1.66-.32,2.32-1.04,2.64-2.69.07-.38.29-.73.44-1.09Z"/>
      <path class="cls-4" d="m122.9,105.9c-.53.49-1.12.93-1.58,1.49-1.76,2.14-3.34,4.43-5.24,6.42-1.16,1.22-1.89,2.97-3.8,3.48-.55.14-.95.86-1.41,1.32-.25.05-.5.1-.74.14-.49-1.25-.26-1.86.77-2.52.73-.47,1.61-.94,2.03-1.64,1.07-1.81,1.94-3.74,2.02-6.01-1.43.59-2.31,1.72-2.43,3.08-.11,1.26-.79,1.41-1.68,1.59-.43.09-.87.15-1.3.23.74-1.49,1.49-2.98,2.23-4.46.72-1.07,1.49-2.1,2.15-3.2.73-1.23,1.34-2.53,2.03-3.78.17-.31.37-.73.65-.85,1.93-.8,2.69-2.65,3.83-4.16.77-1.02,1.32-2.24,2.2-3.15,1.08-1.11,1.96-2.34,2.12-3.81.13-1.28.43-2.39,1.03-3.53,1.25-2.38,2.22-4.9,3.5-7.26.46-.86,1.37-1.59,2.25-2.07.75-.41,1.08-.8.99-1.61,1.39-.91,2.78-1.82,4.18-2.75.35.5.75.85.87,1.28.13.43.03.95-.04,1.42-.06.41-.23.8-.42,1.44.74-.54,1.18-.87,1.65-1.22.83,1.52.79,1.59-.07,2.7-.32.41-.46.97-.59,1.49-.14.53-.16,1.09-.23,1.64-.08.23-.15.45-.23.68-1.04,1.35-3,1.67-3.7,3.49-.36.95-1.31,1.67-1.96,2.51-.47.62-.79,1.38-1.34,1.91-1.52,1.46-1.69,3.89-3.84,4.96-.68.34-.96,1.49-1.4,2.29-.12.22-.04.58-.19.73-1.46,1.42-1.35,3.19-1.27,5,.02.57-.37,1.16-.59,1.74-.12.33-.27.65-.41.98Z"/>
      <path class="cls-25" d="m137.61,82.28c.08-.23.15-.45.23-.68,1.56-.85,3.3-1.49,4.6-2.63.87-.76,1.43-2.19,1.57-3.39.26-2.17,1.71-3.78,2.25-5.79.27-1,.77-1.93,1.16-2.89,1.18-1.14,2.42-2.24,3.51-3.46.52-.58.86-1.02,1.77-.9,1,.13,1.26.29.64,1.14-.9,1.22-.97,2.67-1.38,4.02-.13.44-.06.95-.08,1.43-1.48.95-1.74,2.65-2.46,4.06-.13.25-.17.56-.2.85-.09.97-.16,1.93-.24,2.9-.15.36-.36.71-.44,1.09-.32,1.65-.98,2.37-2.64,2.69-.96.18-1.27.91-1.34,1.68-.17,1.91-1.34,2.86-2.91,3.68-1.18.62-2.17,1.59-3.25,2.39-.23.17-.5.3-.71.49-.41.37-.84.73-1.16,1.17-.38.52-.57,1.2-1,1.65-1.4,1.49-3.16,2.46-5.05,3.2-.06-2.07,1.17-3.69,2.02-5.41.79-1.6,1.92-3.04,2.95-4.52.32-.46.75-.92,1.24-1.18.69-.37.98-.85.91-1.6Z"/>
      <path class="cls-9" d="m109.52,113.48c.43-.08.87-.15,1.3-.23.89-.17,1.57-.32,1.68-1.59.12-1.36,1-2.49,2.43-3.08-.08,2.26-.95,4.2-2.02,6.01-.42.7-1.3,1.17-2.03,1.64-1.02.66-1.25,1.26-.77,2.52.24-.05.49-.1.74-.14-.15.75-.3,1.5-.45,2.25-.01.07,0,.18-.04.21-1.57,1.07-.53,3.07-1.55,4.34-.15.19-.23.67-.11.82.68.88.48,1.73.17,2.68-.42,1.29-.4,2.81-1.09,3.9-1.15,1.82-2.72,3.36-4.82,4.19-.06.03-.17.05-.21.02-1.22-.92-1.5.28-1.62.91-.38,1.91-1.81,3.03-2.95,4.36-.71.84-1.57,1.55-2.31,2.36-.97,1.06-1.89,2.17-2.84,3.26-1.35,1.55-2.93,2.71-5.04,3.04-.53.08-1.17.43-1.46.86-1.22,1.83-2.94,3.08-4.67,4.34-1.12.82-2.22,1.67-3.35,2.47-.32.23-.71.36-1.07.54-.45-.3-.9-.6-1.35-.89.06-.62-.09-1.4.23-1.84,1.48-2.02,3.12-3.92,4.63-5.92.5-.67.63-1.63,1.16-2.27.65-.79,1.57-1.34,2.31-2.06.42-.42.7-1,1.04-1.5,1-1.56,1.84-3.27,3.71-4.05.28-.12.61-.36.72-.62.64-1.52,1.81-2.58,3.02-3.63.25-.21.47-.47.64-.75,1.54-2.58,3.2-5.06,5.46-7.1.56-.51.82-1.36,1.25-2.02.47-.72,1-1.41,1.49-2.12.24-.34.64-.72.62-1.06-.06-.88.38-1.21,1.06-1.58,1.47-.81,2.73-1.78,3.34-3.52.55-1.55,1.44-2.98,2.21-4.45.08-.15.37-.2.56-.3Z"/>
      <path class="cls-9" d="m42.45,125.95c.44-.92.82-1.87,1.33-2.75.82-1.42,1.72-2.79,2.61-4.17.84-1.3,1.69-2.58,2.56-3.86,1.38-2.03,2.81-4.02,4.17-6.06.38-.57.61-1.25.91-1.88.61-.72,1.22-1.43,1.82-2.15.96-1.15,1.9-2.34,2.89-3.46.67-.76,1.47-1.42,2.15-2.18.92-1.03,1.81-2.1,2.68-3.18,1.4-1.74,2.89-3.44,4.15-5.28,1.21-1.77,2.26-3.68,3.24-5.59.85-1.66,1.46-3.45,2.25-5.14.51-1.09,1.15-2.13,1.76-3.18.41-.7.86-1.38,1.32-2.04.98-1.42,1.96-2.84,2.96-4.24,1.15-1.61,2.27-3.24,3.5-4.79,1.07-1.35,2.27-2.6,3.38-3.91.93-1.09,1.88-2.17,2.73-3.33,1.25-1.72,2.15-3.72,3.91-5.04.85-.63,1.76-1.18,2.68-1.71,1.13-.66,2.05-1.71,3.55-1.68.24,0,.63-.68.71-1.08.12-.68.44-1.07,1.08-.94.68.13.49.67.36,1.16-.09.35-.01.74-.08,1.1-.13.72-.1,1.6-.51,2.11-1.79,2.27-2.31,5.12-3.63,7.6-.15.29-.31.63-.29.94.07.9-.29,1.33-1.18,1.28-.63,2.45-.11,3.75,2.06,4.88.36.19,1.19.15,1.39-.11.83-1.08,2.03-1.47,3.18-1.59,1.86-.19,2.86-1.37,3.93-2.61.26-.3.71-.43,1.07-.63.84.03,1.68.1,2.52.07.59-.02,1.14-.23,1.54.46.57.96,1.39,1.09,2.25.38.48-.4.85-.95,1.36-1.3.58-.39,1.27-.64,1.91-.94-.22.55-.3,1.22-.68,1.63-.99,1.07-2.17,1.96-3.15,3.03-.82.89-1.47,1.94-2.19,2.92-.32.14-.7.21-.97.43-1.12.89-1.72.87-2.65-.15-.77-.85-1.76-1.02-2.63-.33-.65.52-1.2,1.17-1.8,1.76-.82.81-1.54,1.76-2.49,2.38-.83.54-1.53,1.12-1.74,2.03-.38,1.71-1.75,2.27-3.04,3.02-1.29.75-2.48,1.16-3.51-.1-.56.3-1.01.54-1.47.78-.22-.53-.54-1.04-.65-1.59-.47-2.33-.14-4.63.48-6.88.59-2.17,1.32-4.3,1.97-6.45.07-.22.11-.62,0-.69-.21-.14-.58-.22-.8-.13-1.03.4-1.79,1.06-2.25,2.14-.96,2.24-2.07,4.41-3.07,6.63-.87,1.94-2.93,2.64-4.21,4.16-.11.13-.48.03-.73.05-.21.01-.5-.04-.6.07-1.05,1.17-2.63,1.85-3.14,3.52-.28.92-.69,1.79-.98,2.7-.56,1.77-1.55,3.23-2.86,4.55-1.31,1.33-2.55,2.75-3.66,4.25-2.22,3.01-4.24,6.17-6.53,9.12-1.81,2.32-3.89,4.42-5.88,6.59-.97,1.06-2.04,2.02-2.99,3.09-.75.85-1.39,1.79-2.05,2.71-1.7,2.36-3.37,4.74-5.08,7.09-1.6,2.19-3.24,4.36-4.86,6.53Z"/>
      <path class="cls-29" d="m121.12,42.15c.15,1.61-1.12,2.58-1.74,3.84-.58,1.2-1.17,2.39-1.8,3.67.32,0,.55.06.74,0,.94-.33,1.48-.19,1.5.98,0,.36.35.9.66,1.01.31.11.79-.17,1.17-.34.8-.36,1.57-.75,2.36-1.13-.5,1.43-1.01,2.81-2.59,3.45-.37.15-.59.65-.94.92-.96.75-1.93,1.49-2.94,2.17-.17.12-.57-.15-.87-.17-.37-.03-.77-.07-1.13.01-.35.08-.66.29-.98.46-.91.47-1.95.8-2.68,1.46-1.21,1.1-2.68,1.46-4.13,1.95-1.4-.25-2.61-.19-3.63,1.14-.38.5-1.52.66-2.26.57-.85-.1-.93-.96-.67-1.69.26-.73.33-1.27-.39-1.84-.28-.22-.31-1.02-.16-1.46.3-.87.78-1.68,1.21-2.5.62-1.2.64-2.66,2.17-3.44.73-.38,1.01-1.65,1.47-2.53.86-1.67,1.69-3.36,2.54-5.03.08-.16.21-.33.36-.41.75-.42,1.27-.88,1.23-1.89-.02-.4.61-.8.83-1.25,1.05-2.15,2.08-4.32,3.1-6.49.69-1.48,1.42-2.91,2.67-4.04.66-.59,1.11-1.41,1.68-2.1.22-.26.52-.46.78-.68-.13.46-.16.98-.41,1.36-.85,1.31-1.79,2.57-2.68,3.86-.25.36-.45.75-.63,1.15-.76,1.71-1.41,3.46-2.27,5.12-1.12,2.16-2.42,4.23-2.74,6.71-.1.79-.22,1.58-.44,2.34-.09.32-.4.66-.7.83-.73.42-1.14,1.29-.78,2.03.33.69.87.52,1.4.22.5-.28,1.08-.46,1.51-.82.72-.61,1.34-1.35,2.03-2.01.35-.34.76-.63,1.15-.93.52-.4,1.14-.71,1.55-1.2.38-.44.58-.71,1.3-.68,1.32.05,2.04-1,2.6-2.07.36-.69.73-1.26,1.56-.53Z"/>
      <path class="cls-4" d="m107.75,60.43c1.45-.48,2.92-.85,4.13-1.95.73-.67,1.77-.99,2.68-1.46.32-.17.64-.39.98-.46.36-.08.75-.05,1.13-.01.3.03.7.29.87.17,1.01-.68,1.98-1.42,2.94-2.17.34-.27.56-.77.94-.92,1.58-.64,2.1-2.03,2.59-3.45,0,0,0,0,0,0,1.48-.59,2.14-2.01,3.12-3.11,1.26-1.11,2.42-2.37,3.81-3.29,1.12-.75,2.51-1.09,3.78-1.61.12.42.38.85.33,1.25-.07.57-.39,1.11-.56,1.68-.27.87-.78,1.77-.71,2.61.13,1.6.12,1.72-1.47,1.85-.5.04-.98.46-1.43.76-.27.18-.47.47-.71.69-1.12,1.05-2.06,2.21-2.12,3.84-.02.73-.31,1.18-1.03,1.38-.27.07-.51.28-.76.42-.78.18-1.6.25-2.32.57-1.22.54-2.37,1.23-3.54,1.86-1.24.67-2.48,1.35-3.73,2.03-.64.31-1.33.55-1.91.94-.51.35-.88.9-1.36,1.3-.86.71-1.68.58-2.25-.38-.41-.69-.95-.48-1.54-.46-.84.03-1.68-.04-2.52-.07.22-.67.45-1.34.67-2.01Z"/>
      <path class="cls-29" d="m102.4,40.59c.97-2.22,1.96-4.42,2.24-6.86.06-.5.3-.98.47-1.46.38-1.06.74-2.13,1.17-3.17.21-.5.47-1.09.89-1.37,2.86-1.93,5.48-4.24,8.91-5.25,1.15-.34,2.11-1.29,3.16-1.96.77-.49,1.52-1.01,2.34-1.4.3-.14.95-.1,1.09.1.21.3.28.91.1,1.23-.62,1.13-1.39,2.17-2.05,3.29-.44.74-.75,1.57-1.19,2.31-.18.31-.57.49-.87.74-.06-.62-.04-1.25-.21-1.84-.34-1.21-3.28-1.49-4.29-.72-1.3.99-2.79,1.72-4.12,2.67-.93.67-1.95,1.39-2.53,2.34-.93,1.51-1.9,3.04-2.05,4.96-.09,1.13-.67,2.23-1.09,3.32-.33.86-.73,1.7-1.17,2.51-.14.26-.53.39-.81.58Z"/>
      <path class="cls-21" d="m163.4,66.22c-1.12.25-2.56,20-3.4,20.04-.76.04-1.51.37-1.9,1.03-.76,1.3.18,2.45.23,3.65.03.62-.11,1.32-.41,1.86-.13.24-.83.17-1.27.25-.64.12-1.27.24-1.91.37-.22-.37-.53-.71-.66-1.11-.52-1.67-.8-1.87-2.39-1.65-.99-1.96-1.93-3.9-2.93-5.81-.56-1.07-.57-2.35.04-3.39s.82-1.98.24-3.11c-.2-.39-.07-.94-.09-1.42,1.86-.97,3.71-1.93,5.57-2.9,0,0,.97-1.3,1.82-2.21l2.82-3.7c.41-.54.98-.94,1.63-1.15l2.61-.75Z"/>
      <path class="cls-25" d="m111.76,143.12c-.04-.64.25-.94.89-.89-.3.3-.59.59-.89.89Z"/>
      <path class="cls-6" d="m8.8,190.59c0-.15,0-.3,0-.45,1.29-.45.75-1.57.88-2.44,0-.15.01-.3.02-.46.14-.15.28-.29.43-.44.27-2,.97-3.81,1.96-5.59,1.06-1.93,1.74-4.07,2.66-6.08,1.07-2.36,2.2-4.69,3.32-7.03.47-.98.97-1.95,1.45-2.93.29-.51.58-1.03.87-1.54.16-.45.31-.9.47-1.35.29-.44.58-.88.87-1.32,0,0,.02-.02.02-.02,1.02-1.42,1.85-2.94,2.68-4.48,2.22-4.08,4.71-8.01,7.11-11.99.3-.5.72-.94,1.04-1.43,1.19-1.83,2.34-3.67,3.54-5.49,1.53-2.31,3.09-4.6,4.64-6.9,1.21-1.79,2.4-3.6,3.65-5.36,1.7-2.4,3.45-4.76,5.19-7.13,1.22-1.66,2.44-3.31,3.71-4.93.84-1.06,1.73-2.09,2.66-3.07,1.39-1.46,2.84-2.87,4.25-4.31.36-.37.7-.76,1.01-1.17.94-1.23,1.85-2.49,2.82-3.69.27-.33.67-.59,1.06-.79,2.14-1.11,4.07-2.38,4.4-5.06.03-.24.21-.47.37-.68,1.74-2.27,3.42-4.59,5.28-6.75.75-.88,1.86-1.78,2.92-1.97,1.19-.22,1.87-.71,2.61-1.55.93-1.06,1.61-2.42,3.14-2.87.82-.24,1.27-.08,1.2.82-.07.92-.29,1.82-.35,2.73-.03.48-.03,1.09.23,1.43.55.72,1.24,1.36,1.97,1.91.41.31,1,.38,1.51.55.5.82.9.13,1.34-.08.68-.33,1.38-1.09,2.01.08.04,1-.06,1.71-1.27,2.2-1.47.59-2.72,1.71-4.09,2.58-.99.63-1.94.91-3.02,0-.8-.67-1.71-.81-2.67.09-.81.76-1.87,1.26-2.83,1.86-1.56.96-3.3,1.71-4.64,2.91-1.31,1.17-2.22,2.78-3.31,4.2-1.41.43-2.83.85-4.23,1.31-.65.21-1.45.31-1.89.75-1.54,1.52-3,3.13-4.42,4.77-1.98,2.29-3.9,4.63-5.81,6.98-1.05,1.29-2.04,2.62-3,3.97-1.09,1.53-2.05,3.15-3.2,4.63-1.35,1.76-2.91,3.34-4.23,5.12-2.75,3.71-5.44,7.47-8.06,11.26-2.12,3.06-4.14,6.19-6.14,9.33-.83,1.3-1.5,2.69-2.26,4.04-.84,1.5-1.76,2.97-2.53,4.51-.64,1.26-1.05,2.65-1.69,3.91-1.6,3.11-3.38,6.13-4.92,9.28-2.26,4.61-4.21,9.35-5.33,14.39-.1.94-.18,1.88-.32,2.81-.17,1.22-.39,2.43-.59,3.65-.22.24-.57.45-.65.74-1.01,3.38-1.49,6.84-1.29,10.36.04.77.61,1.72,1.23,2.2,2.46,1.91,5.29,2.02,7.89.07,1.92-1.44,3.55-3.28,5.28-4.97,2.21-2.18,4.41-4.37,6.58-6.59,1.6-1.63,3.13-3.33,4.75-4.94,1.15-1.15,2.37-2.23,3.6-3.29,1.52-1.31,3.13-2.54,4.63-3.88.7-.63,1.22-1.46,1.87-2.16.52-.56,1.11-1.04,1.64-1.59.41-.42.68-1,1.15-1.31,1.01-.65,1.57-1.5,1.65-2.68,1.61-1.28,3.21-2.59,4.85-3.83,1.03-.78,2.13-1.46,3.2-2.19.09.08.18.16.28.24-.4.77-.65,1.67-1.21,2.28-1.9,2.06-2.76,4.89-5.14,6.61-1.41,1.02-2.55,2.41-3.84,3.6-1.7,1.56-3.79,2.67-5.26,4.51-.31.39-.8.64-1.2.97-1.13.92-2.28,1.82-3.38,2.77-.39.33-.63.82-1.01,1.17-1.09.99-2.21,1.96-3.33,2.92-1.26,1.08-2.53,2.15-3.79,3.23-1.88,1.61-3.84,3.13-5.59,4.87-1.42,1.41-2.6,3.07-3.85,4.65-1.8,2.26-5.06,3.31-7.83,2.26-3.26-1.23-5.1-4.35-4.77-7.11.2-1.68.5-3.35.82-5.01.35-1.8.83-3.58,1.12-5.39.05-.34-.54-.79-.83-1.18Z"/>
      <path class="cls-15" d="m8.8,190.59c.29.4.88.84.83,1.18-.29,1.81-.77,3.59-1.12,5.39-.32,1.66-.62,3.33-.82,5.01-.33,2.76,1.52,5.88,4.77,7.11,2.77,1.05,6.03,0,7.83-2.26,1.26-1.57,2.43-3.24,3.85-4.65,1.75-1.74,3.72-3.26,5.59-4.87,1.26-1.08,2.53-2.15,3.79-3.23,1.12-.96,2.24-1.93,3.33-2.92.38-.34.62-.84,1.01-1.17,1.11-.95,2.25-1.85,3.38-2.77.4-.32.89-.57,1.2-.97,1.47-1.84,3.56-2.94,5.26-4.51,1.29-1.19,2.43-2.57,3.84-3.6,2.38-1.73,3.24-4.55,5.14-6.61.56-.61.82-1.51,1.21-2.28-.09-.08-.18-.16-.28-.24-1.07.73-2.17,1.41-3.2,2.19-1.64,1.24-3.23,2.55-4.85,3.83-.29-.04-.58-.09-.93-.14.28-.65.49-1.14.7-1.64,2.31-2.08,4.61-4.16,6.92-6.25.22-.3.45-.59.67-.89.3-.22.59-.45.89-.67.3-.13.66-.19.9-.4,1.22-1.02,2.44-2.03,3.59-3.12,1.48-1.4,2.88-2.9,4.35-4.31.63-.61,1.41-1.08,2.02-1.7.69-.69,1.26-1.49,1.9-2.24.4-.47.88-.88,1.25-1.37,1.2-1.59,2.39-3.18,4.65-3.45-3.52,3.98-7,7.9-10.48,11.83.1.12.19.24.29.35.93-.55,1.94-.99,2.77-1.67,1.28-1.04,2.43-2.25,3.64-3.37.68-.63,1.39-1.22,2.06-1.86,1.19-1.15,2.24-2.49,3.56-3.47,1.81-1.34,2.66-3.6,4.76-4.63.84-.41,1.57-1.03,2.36-1.55-.34.51-.62,1.08-1.04,1.5-.73.73-1.66,1.28-2.31,2.06-.53.64-.66,1.6-1.16,2.27-1.5,2-3.15,3.9-4.63,5.92-.32.44-.17,1.21-.23,1.84-.21.04-.5,0-.63.14-1.39,1.33-2.76,2.68-4.14,4.03-.08.08-.13.18-.21.26-1.18,1.04-2.37,2.07-3.54,3.12-.63.56-1.22,1.16-1.81,1.76-.98.98-1.99,1.95-2.93,2.98-1.6,1.76-3.1,3.61-4.73,5.33-1.25,1.31-2.46,2.87-4.02,3.61-1.85.88-3.34,2.15-4.93,3.31-1.03.75-1.88,1.75-2.89,2.53-1.54,1.2-3.14,2.33-4.72,3.47-4.01,2.9-7.96,5.88-11.38,9.49-.45.48-.95.96-1.52,1.28-1.98,1.14-2.07,3.42-3.17,5.09-.49.74-1.04,1.43-1.51,2.18-1.22,1.98-2.79,3.65-4.85,4.69-1.04.53-2.31.7-3.5.84-1.15.14-2.37.21-3.49,0-1.87-.37-3.61-1.1-4.68-2.89-.56-.94-1.25-1.81-1.8-2.76-1.13-1.94-1.1-4.12-.74-6.17.61-3.46,2.25-6.6,3.64-9.8.04-.09.18-.13.27-.19Z"/>
      <path class="cls-15" d="m88.35,88.73c-.51-.18-1.1-.24-1.51-.55-.72-.55-1.41-1.19-1.97-1.91-.26-.34-.26-.95-.23-1.43.06-.92.27-1.82.35-2.73.07-.9-.38-1.06-1.2-.82-1.53.45-2.21,1.81-3.14,2.87-.74.84-1.41,1.33-2.61,1.55-1.07.19-2.17,1.09-2.92,1.97-1.86,2.16-3.54,4.49-5.28,6.75-.16.2-.34.44-.37.68-.33,2.69-2.26,3.96-4.4,5.06-.39.2-.79.46-1.06.79-.97,1.21-1.87,2.47-2.82,3.69-.31.41-.65.81-1.01,1.17-1.41,1.44-2.86,2.84-4.25,4.31-.93.98-1.82,2.01-2.66,3.07-1.27,1.62-2.49,3.27-3.71,4.93-1.74,2.37-3.49,4.73-5.19,7.13-1.25,1.76-2.44,3.57-3.65,5.36-1.55,2.3-3.11,4.59-4.64,6.9-1.2,1.82-2.35,3.67-3.54,5.49-.32.49-.73.93-1.04,1.43-2.4,3.98-4.89,7.91-7.11,11.99-.84,1.54-1.67,3.06-2.68,4.48.53-1.32,1-2.67,1.61-3.96.47-1,1.13-1.92,1.69-2.87,2-3.4,3.93-6.84,6.01-10.2,2.24-3.63,4.63-7.17,6.92-10.78,1-1.58,1.89-3.24,2.87-4.84.5-.81,1.08-1.56,1.63-2.34,1.62-2.18,3.26-4.34,4.86-6.53,1.71-2.35,3.38-4.73,5.08-7.09.66-.92,1.31-1.86,2.05-2.71.95-1.07,2.02-2.04,2.99-3.09,1.99-2.17,4.08-4.28,5.88-6.59,2.3-2.95,4.31-6.12,6.53-9.12,1.11-1.5,2.35-2.92,3.66-4.25,1.31-1.32,2.3-2.78,2.86-4.55.29-.91.7-1.79.98-2.7.51-1.66,2.1-2.35,3.14-3.52.1-.11.4-.06.6-.07.25-.02.62.08.73-.05,1.28-1.51,3.34-2.21,4.21-4.16,1-2.22,2.11-4.39,3.07-6.63.46-1.08,1.22-1.74,2.25-2.14.23-.09.6-.01.8.13.11.07.07.47,0,.69-.65,2.15-1.37,4.28-1.97,6.45-.62,2.25-.95,4.55-.48,6.88.11.55.43,1.06.65,1.59-.46.78-.59,1.54-.09,2.38.13.22.08.7-.08.94-.57.91-.06,1.18.7,1.37.83.21,1.66.43,2.79.72-.94.94-1.73,1.79-2.59,2.56-.88.8-1.83,1.52-2.76,2.28Z"/>
      <path class="cls-15" d="m9.68,187.7c-.13.87.41,1.99-.88,2.44.06-.9-.29-1.94.88-2.44Z"/>
      <path class="cls-15" d="m20.37,163.63c-.29.51-.58,1.03-.87,1.54.29-.51.58-1.03.87-1.54Z"/>
      <path class="cls-15" d="m21.71,160.96c-.29.44-.58.88-.87,1.32.29-.44.58-.88.87-1.32Z"/>
      <path class="cls-15" d="m10.12,186.81c-.14.15-.28.29-.43.44.14-.15.28-.29.43-.44Z"/>
      <path class="cls-20" d="m126.25,56.64c.25-.15.49-.35.76-.42.72-.2,1.01-.65,1.03-1.38.06-1.63,1-2.79,2.12-3.84.24-.23.44-.52.71-.69.45-.3.93-.72,1.43-.76,1.59-.13,1.6-.25,1.47-1.85-.07-.85.44-1.75.71-2.61.18-.56.49-1.1.56-1.68.05-.4-.21-.83-.33-1.25-.07-.99.84-.96,1.37-1.34.45-.32,1.14-.76,1.15-1.16.06-1.64,1.39-2.14,2.31-3.08,1.12-1.15,2.05-2.51,3-3.82.44-.6.73-1.31,1.09-1.97.82,0,1.63-.01,2.45,0,1.38.02,1.97.89,1.6,2.21-.23.82-.25,1.7-.53,2.5-.23.68-.54,1.52-1.08,1.87-1.29.83-1.95,2.06-2.68,3.3-.23.4-.6.72-.92,1.06-.77.82-1.39,1.69-1.24,3.22.6-.21,1.17-.28,1.58-.57,1.43-1.02,2.68-2.3,4.55-2.58.36-.06.64-.64.97-.97.7-.68,1.32-1.47,2.12-1.99,1-.65,1.4-1.56,1.66-2.62.4-1.62.73-1.83,2.4-2.11.57-.09,1.17-.43,1.61-.82.59-.52,1.18-.67,1.81-.3.25.15.51.77.39.97-.41.72-.06,1.01.51,1.28.79.37,1.57.76,2.27,1.11-1.01,2.34-1.91,4.57-2.94,6.74-.45.95-1.26,1.72-1.71,2.66-.57,1.19-.89,2.46-.6,3.84.26,1.23-.69,1.97-1.38,2.76-.64.73-1.4,1.33-1.31,2.45.02.21-.16.54-.35.66-2.44,1.55-3.14,4.17-4.14,6.62-.18.45-.57.8-.85,1.21-.8,1.16-1.59,2.33-2.38,3.49.1.11.2.22.29.33.56-.07,1.12-.14,1.68-.21-.4.96-.9,1.89-1.16,2.89-.54,2.01-2,3.62-2.25,5.79-.14,1.2-.7,2.63-1.57,3.39-1.3,1.14-3.05,1.78-4.6,2.63.07-.55.1-1.1.23-1.64.13-.52.28-1.08.59-1.49.86-1.11.91-1.18.07-2.7-.47.34-.91.67-1.65,1.22.19-.64.36-1.03.42-1.44.07-.47.17-.98.04-1.42-.13-.43-.52-.78-.87-1.28-1.4.92-2.79,1.84-4.18,2.75.39-1.37.77-2.74,1.18-4.1.19-.63.29-1.34.67-1.83,1.01-1.3,1.87-2.64,2.19-4.29.06-.31.27-.62.48-.86.64-.73.46-1.45-.04-2.12-.33-.44-.77-.8-1.16-1.2-1.23-1.23-2.55-1.07-3.46.4-.13.21-.31.53-.49.55-1.77.17-2.81,1.53-4.11,2.48-.68.5-1.35.74-2.14.21-.82-.55-.55-1.36-.38-2.01.39-1.49.92-2.94,1.44-4.4.26-.72.13-1.29-.43-1.78Z"/>
      <path class="cls-29" d="m127.13,47.06c-.97,1.1-1.63,2.52-3.12,3.11.63-1.45,1.66-2.49,3.12-3.11Z"/>
      <path class="cls-22" d="m137.99,31.69c.53-.32,1.05-.63,1.58-.95.09.12.17.24.26.37-.5.35-1,.7-1.49,1.04-.12-.15-.23-.31-.35-.46Z"/>
      <path class="cls-27" d="m126.25,56.64c.56.49.69,1.06.43,1.78-.52,1.45-1.05,2.91-1.44,4.4-.17.65-.44,1.47.38,2.01.78.52,1.45.28,2.14-.21,1.29-.94,2.33-2.3,4.11-2.48.18-.02.36-.34.49-.55.91-1.47,2.23-1.62,3.46-.4.39.39.83.76,1.16,1.2.5.67.68,1.39.04,2.12-.21.24-.42.55-.48.86-.32,1.65-1.17,2.99-2.19,4.29-.38.49-.49,1.21-.67,1.83-.41,1.36-.79,2.73-1.18,4.1.1.8-.24,1.2-.99,1.61-.88.48-1.78,1.22-2.25,2.07-1.28,2.36-2.25,4.88-3.5,7.26-.6,1.14-.9,2.25-1.03,3.53-.15,1.47-1.04,2.7-2.12,3.81-.88.9-1.43,2.13-2.2,3.15-1.14,1.5-1.9,3.36-3.83,4.16-.29.12-.48.53-.65.85-.69,1.26-1.3,2.55-2.03,3.78-.66,1.1-1.43,2.14-2.15,3.2-1.88.44-3.38,1.22-3.76,3.41-.12.68-.49,1.52-1.46,1.62.34-.82.72-1.57.97-2.35.49-1.55.91-3.12,1.35-4.68.37-.64.71-1.31,1.12-1.92.53-.79,1.22-1.5,1.68-2.33,1.38-2.51,2.69-5.06,4.03-7.6.41-.79.84-1.56,1.25-2.35.6-1.16,1.28-2.3,1.76-3.51.31-.77.27-1.68.52-2.49.2-.62.72-1.13.91-1.74.59-1.85,1.15-3.72,1.62-5.61.3-1.22-.47-2.05-1.61-1.57-1.31.56-2.96.77-3.57,2.46-.21.59-1.43.84-2.07.48-.67-.38-.94-.91-.43-1.65,1.2-1.78.72-3.8.77-5.74,0-.17-.41-.36-.63-.53.07-.28.11-.57.21-.84.57-1.65,1.15-3.29,1.7-4.87-.93-.7-1.49-.61-2.1-.03-.66.63-1.4,1.18-2.15,1.71-.42.29-.93.55-1.23-.2.72-.98,1.37-2.03,2.19-2.92.98-1.07,2.16-1.96,3.15-3.03.37-.4.46-1.08.68-1.63,1.24-.68,2.48-1.35,3.73-2.03,1.17-.63,2.32-1.32,3.54-1.86.72-.32,1.54-.39,2.32-.57Z"/>
      <path class="cls-23" d="m108.86,107.01c-.45,1.56-.86,3.13-1.35,4.68-.25.79-.62,1.53-.97,2.35.96-.1,1.34-.94,1.46-1.62.38-2.18,1.88-2.97,3.76-3.41-.74,1.49-1.49,2.98-2.23,4.46-.19.1-.48.14-.56.3-.77,1.47-1.66,2.9-2.21,4.45-.61,1.73-1.87,2.71-3.34,3.52-.68.37-1.12.71-1.06,1.58.02.34-.38.72-.62,1.06-.49.71-1.02,1.4-1.49,2.12-.44.66-.69,1.51-1.25,2.02-2.26,2.04-3.92,4.52-5.46,7.1-.17.28-.39.54-.64.75-1.21,1.04-2.38,2.1-3.02,3.63-.11.27-.44.5-.72.62-1.87.78-2.71,2.48-3.71,4.05-.78.52-1.52,1.14-2.36,1.55-2.1,1.03-2.95,3.3-4.76,4.63-1.32.97-2.37,2.31-3.56,3.47-.66.64-1.38,1.23-2.06,1.86-1.21,1.13-2.36,2.33-3.64,3.37-.83.67-1.84,1.12-2.77,1.67-.1-.12-.19-.24-.29-.35,3.48-3.93,6.96-7.85,10.48-11.83-2.26.27-3.45,1.86-4.65,3.45-.37.49-.84.9-1.25,1.37-.64.74-1.22,1.54-1.9,2.24-.62.62-1.39,1.09-2.02,1.7-1.47,1.42-2.87,2.91-4.35,4.31-1.15,1.09-2.37,2.1-3.59,3.12-.24.2-.6.27-.9.4.11-.23.18-.48.33-.67.7-.85,1.39-1.72,2.15-2.51,2.28-2.41,4.61-4.78,6.89-7.19.77-.82,1.47-1.7,2.21-2.56.91-1.01,1.87-1.98,2.73-3.03,1.08-1.31,1.95-2.8,3.14-4,1.74-1.75,3.78-3.21,5.51-4.97,1.87-1.92,3.54-4.04,5.28-6.09.33-.39.79-.8.87-1.25.24-1.28,1.15-1.92,2.07-2.62.3-.23.46-.66.69-.99.42-.82.77-1.68,1.27-2.45,1.25-1.89,3.47-2.99,4.31-5.23.03-.09.17-.14.24-.23,1.02-1.19,2.01-2.41,3.06-3.58.42-.47.98-.81,1.46-1.23.56-.49,1.15-.97,1.64-1.53.43-.49.7-1.12,1.11-1.62,1.21-1.47,2.45-2.91,3.71-4.34.76-.86,1.57-1.69,2.36-2.53Z"/>
      <path class="cls-23" d="m110.64,68.68c.3.75.81.49,1.23.2.75-.53,1.49-1.08,2.15-1.71.61-.58,1.18-.67,2.1.03-.55,1.58-1.13,3.22-1.7,4.87-.09.27-.14.56-.21.84-.07.07-.15.15-.22.22-.8-.06-.99.5-1.11,1.11-.46.56-.95.69-1.72.51-.62-.14-1.59-.07-1.99.33-1.17,1.17-2.13,2.55-3.18,3.84-.72.3-1.61.43-2.11.95-.94.96-1.64,2.14-2.45,3.23-.15.2-.31.51-.51.54-2.2.43-2.34,2.6-3.42,3.97-2.13-.87-3.96-.12-5.69,1.09-.03.02-.07,0-.11.01-.63-1.17-1.33-.4-2.01-.08-.44.21-.84.9-1.34.08.92-.76,1.87-1.48,2.76-2.28.86-.77,1.65-1.62,2.59-2.56-1.13-.29-1.96-.51-2.79-.72-.76-.19-1.27-.46-.7-1.37.15-.24.21-.71.08-.94-.51-.84-.37-1.61.09-2.38.45-.24.91-.49,1.47-.78,1.02,1.26,2.22.86,3.51.1,1.29-.75,2.66-1.31,3.04-3.02.2-.91.91-1.49,1.74-2.03.95-.61,1.67-1.57,2.49-2.38.6-.59,1.15-1.24,1.8-1.76.86-.69,1.86-.52,2.63.33.92,1.02,1.53,1.04,2.65.15.27-.21.64-.29.97-.43Z"/>
      <path class="cls-10" d="m12.14,186.8c1.12-5.04,3.07-9.78,5.33-14.39,1.54-3.14,3.31-6.17,4.92-9.28.65-1.26,1.05-2.64,1.69-3.91.78-1.54,1.69-3,2.53-4.51.76-1.34,1.43-2.74,2.26-4.04,2.01-3.14,4.03-6.27,6.14-9.33,2.63-3.8,5.32-7.55,8.06-11.26,1.32-1.78,2.88-3.37,4.23-5.12,1.14-1.49,2.1-3.11,3.2-4.63.96-1.35,1.96-2.68,3-3.97,1.91-2.35,3.84-4.69,5.81-6.98,1.41-1.64,2.88-3.25,4.42-4.77.45-.44,1.24-.54,1.89-.75,1.41-.45,2.82-.87,4.23-1.31.43-.18.97-.25,1.28-.55.94-.93,1.78-1.98,2.7-2.94.34-.35.78-.61,1.2-.87.43-.26.93-.41,1.32-.72,1.18-.92,3.52-1.45,4.39-.67,1.08.98,2.16,1.33,3.57,1.1.7-.11,1.24.6.97,1.1-.6,1.12-1.23,2.22-1.84,3.33-.59.68-1.2,1.35-1.77,2.05-.27.33-.46.72-.68,1.08-1.35,0-1.97,1.05-2.62,1.95-.87,1.19-1.73,2.25-3.28,2.63-.48.12-1.06.8-1.16,1.31-.21,1.13-.82,1.58-1.86,1.69.29-1.57.58-3.14.86-4.71.26-1.47-.43-2.21-1.71-1.69-1.08.44-2.09,1.09-3.06,1.76-1.05.74-2,1.61-3,2.42-.44-.05-.95.04-1.29-.17-1.34-.81-2.05-.69-3.04.54-1,1.23-2.07,2.41-3.11,3.61-2.17,2.54-4.43,4.97-6.15,7.89-1.3,2.21-2.97,4.22-4.64,6.18-1.21,1.42-2.09,3.11-3.82,4.17-1.08.67-1.72,2.07-2.54,3.16-2.27,3-4.52,6.01-6.8,9-.93,1.22-2.05,2.31-2.85,3.61-1.37,2.23-2.55,4.57-3.81,6.87-1.05,1.91-2.18,3.78-3.15,5.73-1.78,3.56-3.4,7.2-5.21,10.74-2.13,4.17-4.22,8.34-5.57,12.85-.2.65-.7,1.21-1.06,1.82Z"/>
      <path class="cls-14" d="m12.14,186.8c.36-.6.87-1.16,1.06-1.82,1.35-4.51,3.44-8.68,5.57-12.85,1.81-3.54,3.43-7.18,5.21-10.74.97-1.95,2.1-3.82,3.15-5.73,1.26-2.29,2.44-4.64,3.81-6.87.8-1.3,1.92-2.39,2.85-3.61,2.28-2.99,4.53-6,6.8-9,.82-1.09,1.45-2.49,2.54-3.16,1.73-1.06,2.61-2.75,3.82-4.17,1.67-1.96,3.34-3.97,4.64-6.18,1.72-2.92,3.98-5.36,6.15-7.89,1.03-1.21,2.1-2.38,3.11-3.61.99-1.22,1.7-1.34,3.04-.54.34.21.86.12,1.29.17-.15,1.26-1.18,1.25-2.08,1.59-1.35.5-2.89.96-3.85,1.93-1,1-1.63,2.53-2.01,3.94-.48,1.74-1.06,3.27-2.68,4.23-.24.14-.41.42-.56.67-1.12,1.94-2,4.01-3.83,5.49-.8.65-.75,1.93-.14,2.65-1.63,1.93-2.42,4.54-4.82,5.85-.2.11-.3.41-.43.64-.97,1.62-1.9,3.27-2.93,4.86-.26.41-.82.63-1.22.96-.39.32-.81.62-1.13.99-.58.67-1.06,1.42-1.63,2.09-.69.81-1.47,1.53-2.16,2.35-1.47,1.75-2.87,3.57-4.37,5.29-1.09,1.24-2.28,2.36-2.98,3.93-.57,1.27-1.39,2.42-2.09,3.62-.28.47-.57.94-.82,1.43-.62,1.21-1.19,2.45-1.82,3.65-.84,1.59-1.8,3.12-2.58,4.73-1.17,2.43-2.28,4.89-3.34,7.38-.8,1.89-1.49,3.83-2.22,5.74-.28.27-.64.49-.83.81-1.41,2.43-1.95,5.13-2.28,7.87-.3.37-.59.74-.89,1.11-.08-.45-.16-.9-.24-1.35.2-1.22.42-2.43.59-3.65.13-.93.21-1.87.32-2.81Z"/>
      <path class="cls-18" d="m83.45,102.33c.62-1.11,1.24-2.21,1.84-3.33.27-.5-.26-1.21-.97-1.1-1.41.23-2.49-.13-3.57-1.1-.87-.78-3.21-.25-4.39.67-.39.3-.89.45-1.32.72-.42.26-.87.52-1.2.87-.92.96-1.76,2-2.7,2.94-.31.3-.85.38-1.28.55,1.09-1.42,2-3.03,3.31-4.2,1.34-1.2,3.08-1.95,4.64-2.91.96-.59,2.02-1.09,2.83-1.86.96-.91,1.86-.76,2.67-.09,1.08.91,2.03.64,3.02,0,1.36-.87,2.62-1.98,4.09-2.58,1.21-.49,1.31-1.2,1.27-2.2.04,0,.08,0,.11-.01,1.73-1.22,3.56-1.96,5.69-1.09.22,1.11.44,2.23.66,3.34-.35.1-.74.13-1.04.31-1.35.8-2.69,1.63-4.02,2.46-1.72,1.06-2.76,2.47-2.32,4.63.03.16-.01.47-.1.5-.97.41-1.13,1.81-2.36,1.91-.14.01-.26.29-.39.44-.57.38-1.2.7-1.7,1.16-1.16,1.07-1.59,1.09-2.77-.04Z"/>
      <path class="cls-10" d="m11.23,193.25c.08.45.16.9.24,1.35-.3,1.48-.72,2.94-.85,4.43-.15,1.63-.23,3.32.03,4.92.17,1.08.66,2.43,2.02,2.63,2.61.38,4.98-.4,7.01-2.06,1.25-1.02,2.42-2.16,3.53-3.33.51-.53.8-1.27,1.19-1.91.22-.15.44-.3.66-.45.23-.29.45-.59.68-.88,0,0,0,0,0,0,.2-.09.44-.13.58-.27,1.13-1.1,2.25-2.21,3.35-3.34,1.64-1.69,3.27-3.4,4.89-5.11,1.38-1.46,3.05-2.68,3.89-4.62.28-.65.73-1.22,1.1-1.82.52-.44,1.09-.83,1.54-1.33,1.08-1.2,2.08-2.46,3.15-3.68.39-.45.87-.82,1.31-1.23.4-.28.83-.54,1.21-.86.88-.74,1.73-1.5,2.6-2.25-.21.49-.42.99-.7,1.64.34.05.63.1.93.14-.08,1.19-.65,2.03-1.65,2.68-.47.3-.75.89-1.15,1.31-.53.55-1.13,1.03-1.64,1.59-.65.7-1.17,1.53-1.87,2.16-1.5,1.34-3.1,2.56-4.63,3.88-1.23,1.06-2.45,2.14-3.6,3.29-1.62,1.61-3.15,3.31-4.75,4.94-2.18,2.21-4.37,4.41-6.58,6.59-1.73,1.7-3.36,3.54-5.28,4.97-2.61,1.95-5.43,1.85-7.89-.07-.62-.48-1.19-1.44-1.23-2.2-.2-3.51.28-6.98,1.29-10.36.09-.28.43-.49.65-.74Z"/>
      <path class="cls-18" d="m49.35,173.44c-.86.75-1.72,1.51-2.6,2.25-.38.32-.8.57-1.21.86.61-.94,1.27-1.86,1.82-2.84.36-.64.58-1.37.86-2.07.29-.37.64-.7.86-1.1.57-1.05.93-2.26,1.67-3.17,1.59-1.93,3.36-3.7,5.06-5.53-.14.47-.27.94-.41,1.4.08.08.16.16.23.24.38-.3.78-.59,1.14-.91.58-.53,1.14-1.08,1.71-1.62.72-.31,1.59-.46,2.14-.96,2.26-2.06,4.4-4.27,6.66-6.33.55-.5,1.41-.65,2.12-.95-.73.86-1.43,1.74-2.21,2.56-2.28,2.41-4.61,4.78-6.89,7.19-.76.8-1.45,1.66-2.15,2.51-.15.19-.22.44-.33.67-.3.22-.59.45-.89.67-.22.29-.45.59-.67.89-2.31,2.08-4.61,4.16-6.92,6.25Z"/>
      <path class="cls-23" d="m56.27,167.19c.22-.3.45-.59.67-.89-.22.3-.45.59-.67.89Z"/>
      <path class="cls-1" d="m113.98,73.13c.07-.07.15-.15.22-.22.22.18.64.36.63.53-.04,1.94.43,3.96-.77,5.74-.5.74-.24,1.26.43,1.65.64.37,1.86.11,2.07-.48.6-1.69,2.26-1.9,3.57-2.46,1.13-.48,1.91.34,1.61,1.57-.47,1.89-1.03,3.76-1.62,5.61-.2.62-.72,1.13-.91,1.74-.26.8-.21,1.71-.52,2.49-.49,1.21-1.16,2.35-1.76,3.51-.41.79-.84,1.57-1.25,2.35-1.34,2.54-2.64,5.09-4.03,7.6-.46.83-1.14,1.53-1.68,2.33-.41.61-.75,1.28-1.12,1.92-.79.84-1.6,1.66-2.36,2.53-1.26,1.43-2.5,2.87-3.71,4.34-.42.5-.68,1.13-1.11,1.62-.49.56-1.08,1.04-1.64,1.53-.48.42-1.04.76-1.46,1.23-1.05,1.17-2.05,2.38-3.06,3.58-.07.08-.2.14-.24.23-.84,2.24-3.06,3.34-4.31,5.23-.5.76-.85,1.63-1.27,2.45-.65-.43-1.3-.86-1.92-1.27,1.29-1.53,2.53-3.01,3.78-4.47.14-.16.4-.21.54-.37.61-.7,1.23-1.4,1.8-2.14.6-.78,1.09-1.65,1.73-2.38,1.07-1.2,2.37-2.22,3.31-3.51,1.35-1.86,2.46-3.89,3.66-5.86.59-.97,1.02-2.04,1.71-2.92,1.17-1.48,1.92-2.96,1-4.84-.12-.25-.21-.59-.16-.85.32-1.56.66-3.12,1.04-4.67.23-.93-.2-1.45-1.14-1.2-.57.15-1.08.48-1.65.65-.32.09-.68,0-1.03,0,0-.38-.11-.81.04-1.12.66-1.38,1.43-2.71,2.09-4.08.6-1.25,1.28-2.5,1.64-3.82.45-1.62.49-3.35.92-4.98.35-1.34.18-2.31-1.09-2.96,1.04-1.3,2.01-2.67,3.18-3.84.4-.4,1.37-.47,1.99-.33.77.18,1.26.05,1.72-.51.37-.37.74-.74,1.11-1.11Z"/>
      <path class="cls-7" d="m105.98,78.93c1.27.66,1.44,1.62,1.09,2.96-.43,1.63-.48,3.36-.92,4.98-.37,1.33-1.04,2.57-1.64,3.82-.66,1.38-1.43,2.7-2.09,4.08-.15.31-.03.74-.04,1.12.34,0,.71.09,1.03,0,.56-.16,1.08-.5,1.65-.65.94-.24,1.36.28,1.14,1.2-.38,1.55-.72,3.11-1.04,4.67-.05.26.03.6.16.85.92,1.88.17,3.36-1,4.84-.69.88-1.13,1.96-1.71,2.92-1.19,1.97-2.31,4-3.66,5.86-.93,1.29-2.24,2.31-3.31,3.51-.65.73-1.13,1.61-1.73,2.38-.57.74-1.18,1.44-1.8,2.14-.14.16-.41.21-.54.37-1.26,1.47-2.5,2.95-3.78,4.47.62.41,1.27.84,1.92,1.27-.23.34-.38.76-.69.99-.92.7-1.83,1.34-2.07,2.62-.09.46-.54.86-.87,1.25-1.74,2.05-3.41,4.17-5.28,6.09-1.72,1.77-3.77,3.22-5.51,4.97-1.19,1.19-2.06,2.69-3.14,4-.86,1.05-1.82,2.03-2.73,3.03-.72.31-1.58.46-2.12.95-2.26,2.06-4.4,4.27-6.66,6.33-.55.5-1.42.65-2.14.96,1.31-1.65,2.6-3.31,3.92-4.95.39-.48.87-.9,1.24-1.39.57-.76,1.01-1.63,1.64-2.33,2.63-2.91,5.3-5.79,7.97-8.66,1.03-1.1,2.29-2.04,3.15-3.25,2.06-2.93,4.47-5.54,6.88-8.18,1.33-1.45,2.37-3.17,3.5-4.79,1.07-1.54,2.22-3.05,3.08-4.7.56-1.07,1.13-2.02,2.04-2.84.48-.43.68-1.22.91-1.88.43-1.21.78-2.41,2.26-2.78.55-.13,1.61-2.09,1.44-2.69-.35-1.21.07-2.24.53-3.31.55-1.28,1.21-2.56.73-4.21-.65.21-1.28.44-1.92.62-.28.08-.73.19-.85.05-.2-.21-.35-.68-.25-.93.37-.92.92-1.77,1.28-2.7.41-1.05.73-2.14.99-3.24.27-1.14.36-2.32.63-3.45.18-.74.69-1.42.79-2.16.1-.72.39-1.57-.29-2.23-.22-1.11-.44-2.23-.66-3.34,1.08-1.37,1.22-3.55,3.42-3.97.2-.04.36-.34.51-.54.81-1.08,1.51-2.27,2.45-3.23.5-.51,1.39-.64,2.11-.95Z"/>
      <path class="cls-27" d="m113.98,73.13c-.37.37-.74.74-1.11,1.11.12-.62.31-1.17,1.11-1.11Z"/>
      <path class="cls-16" d="m48.23,171.64c-.28.69-.5,1.42-.86,2.07-.55.98-1.21,1.9-1.82,2.84-.44.41-.92.78-1.31,1.23-1.06,1.21-2.07,2.48-3.15,3.68-.45.5-1.02.89-1.54,1.33.83-1.23,1.66-2.46,2.47-3.7.45-.69.93-1.38,1.28-2.12.23-.48.25-1.06.38-1.59.13-.53.29-1.06-.57-1.05.19-.75.5-1.5.54-2.25.14-2.9,1.44-5.37,2.8-7.81.94-1.69,1.36-3.34.54-5.2-.11-.24.03-.64.15-.92.68-1.63,1.2-3.28,1.35-5.07.12-1.43.51-2.81,1.83-3.75.4-.29.68-.89.8-1.4.35-1.49,1.1-2.71,2.18-3.77.38-.38.76-.85.9-1.35.26-.91.24-1.9.53-2.79.3-.92.62-2.19,1.32-2.54.96-.48,1.12-.98,1.11-1.85,0-.47.14-.94.21-1.41.06-.47.18-.94.16-1.41-.12-3.26.48-4.28,3.63-4.37.98-.03,1.65-.36,2.27-1.12.3-.37,1.03-.71,1.46-.61.96.22,1.3-.09,1.44-.96.07-.43.3-.85.34-1.28.12-1.36.89-2.11,2.04-2.78,1.07-.63,2.66-1.05,2.32-2.9-.02-.08.13-.18.15-.28.15-.78.3-1.55.42-2.33.03-.2-.14-.53-.05-.62.78-.72.47-1.65.53-2.51,1.03-.11,1.65-.56,1.86-1.69.09-.51.68-1.19,1.16-1.31,1.55-.38,2.41-1.44,3.28-2.63.65-.89,1.27-1.94,2.62-1.95-.71,1.56-1.4,3.13-2.13,4.67-.43.92-1.49,1.68-.62,2.87.03.04,0,.15-.04.21-.59,1.05-1.02,2.25-1.81,3.12-2.17,2.41-4.23,4.83-4.21,8.32,0,.95-.06,1.98.28,2.83.27.68.19,1-.19,1.55-.86,1.24-1.83,2.47-2.33,3.87-.5,1.4-1.16,2.59-2.13,3.7-.99,1.13-1.98,2.29-2.79,3.55-1.01,1.57-1.81,3.27-2.78,4.88-.64,1.07-1.68,1.97-2.08,3.11-.9,2.6-2.62,4.7-3.83,7.1-.55,1.09-1.06,2.19-1.62,3.27-1.23,2.39-2.42,4.8-3.75,7.13-.69,1.21-1.73,2.22-2.44,3.42-.45.75-1.2,1.62-.31,2.6Z"/>
      <path class="cls-13" d="m48.23,171.64c-.9-.98-.14-1.85.31-2.6.72-1.2,1.75-2.21,2.44-3.42,1.33-2.33,2.52-4.74,3.75-7.13.56-1.08,1.07-2.19,1.62-3.27,1.21-2.4,2.94-4.5,3.83-7.1.39-1.14,1.43-2.04,2.08-3.11.96-1.6,1.76-3.31,2.78-4.88.81-1.26,1.8-2.42,2.79-3.55.96-1.1,1.63-2.29,2.13-3.7.5-1.39,1.47-2.63,2.33-3.87.38-.55.46-.87.19-1.55-.33-.85-.27-1.88-.28-2.83-.02-3.48,2.04-5.91,4.21-8.32.79-.87,1.22-2.07,1.81-3.12.03-.06.07-.17.04-.21-.87-1.19.19-1.96.62-2.87.73-1.55,1.42-3.12,2.13-4.67.22-.36.42-.75.68-1.08.57-.7,1.18-1.37,1.77-2.05,1.17,1.13,1.61,1.11,2.77.04.5-.46,1.13-.78,1.7-1.16,1.48-.45,2.97-.88,4.43-1.38.65-.22,1.07-.17,1.32.57-1.47,1.71-2.17,4.08-4.41,5.17-.19.09-.31.41-.4.65-.59,1.69-.99,3.41-2.22,4.87-.82.97-1.14,2.34-1.75,3.5-1.36,2.57-2.72,5.14-4.17,7.66-.93,1.62-1.99,3.17-3.07,4.69-.84,1.18-.82,1.56.5,2.17-.28.74-.46,1.56-.87,2.24-1.96,3.2-3.92,6.4-6.01,9.51-1.95,2.9-4.07,5.69-6.11,8.54-1.27,1.77-2.5,3.56-3.78,5.31-.5.68-1.11,1.28-1.62,1.95-1.32,1.71-2.62,3.44-3.93,5.15-1.7,1.84-3.47,3.61-5.06,5.53-.74.9-1.1,2.12-1.67,3.17-.22.4-.57.74-.86,1.1Z"/>
      <path class="cls-17" d="m72.08,113.03c-.06.86.25,1.79-.53,2.51-.09.09.08.41.05.62-.12.78-.27,1.56-.42,2.33-.02.1-.17.2-.15.28.35,1.85-1.25,2.27-2.32,2.9-1.15.67-1.92,1.42-2.04,2.78-.04.43-.27.85-.34,1.28-.14.87-.48,1.19-1.44.96-.43-.1-1.16.23-1.46.61-.62.76-1.29,1.09-2.27,1.12-3.15.09-3.75,1.1-3.63,4.37.02.47-.11.94-.16,1.41-.54.09-1.1.12-1.62.29-.91.31-1.5-.24-1.82-.84-.64-1.16-1.07-2.43-1.59-3.66-.82.46-1.57.89-2.32,1.31-.61-.73-.66-2,.14-2.65,1.83-1.48,2.71-3.55,3.83-5.49.14-.25.32-.53.56-.67,1.62-.96,2.2-2.49,2.68-4.23.39-1.41,1.02-2.94,2.01-3.94.96-.97,2.5-1.43,3.85-1.93.9-.33,1.93-.33,2.08-1.59,1-.81,1.95-1.68,3-2.42.96-.67,1.97-1.32,3.06-1.76,1.28-.52,1.97.23,1.71,1.69-.28,1.57-.57,3.14-.86,4.71Z"/>
      <path class="cls-2" d="m55.76,134.49c-.91.31-1.5-.24-1.83-.83-.63-1.16-1.07-2.43-1.59-3.66-.82.46-1.57.88-2.32,1.3-1.63,1.93-2.42,4.55-4.82,5.85-.2.11-.3.41-.43.64-.97,1.62-1.9,3.27-2.93,4.86-.26.41-.81.63-1.22.95-.39.32-.81.62-1.13,1-.58.67-1.06,1.42-1.64,2.09-.69.8-1.47,1.53-2.15,2.34-1.48,1.75-2.87,3.57-4.38,5.3-1.08,1.24-2.28,2.36-2.98,3.92-.56,1.27-1.38,2.42-2.09,3.63-.28.47-.57.94-.82,1.43-.61,1.21-1.18,2.44-1.82,3.64-.84,1.59-1.8,3.12-2.58,4.74-1.18,2.42-2.28,4.89-3.34,7.37-.8,1.89-1.49,3.83-2.22,5.74.38,1.89-.16,3.63-.87,5.33-.48,1.14-1.05,2.24-1.58,3.36-.44,2.67-.36,5.42-1.37,8.01-.25.64.11,1.53.24,2.3.04.24.29.43.37.67.21.7.26,1.54,1.29,1.49,1.28-.06,2.44-.01,3.41-1.37.9-1.27,1.57-2.92,3.61-3.28,1.35-.24,2.56-1.32,3.82-2.03.22-.15.44-.3.66-.45.22-.29.45-.59.68-.88.06-.17.07-.39.19-.51,2.07-2.18,4.18-4.32,6.21-6.53.66-.72,1.12-1.63,1.69-2.44.46-.65.9-1.33,1.43-1.93.9-1.01,1.88-1.94,2.77-2.95.17-.19.07-.62.11-.93.06-.54-.05-1.19.22-1.59,1.36-2.01,2.83-3.95,4.26-5.92.18-.26.33-.55.5-.83.19-.75.5-1.49.54-2.25.14-2.9,1.44-5.37,2.8-7.81.95-1.69,1.37-3.34.55-5.19-.11-.24.03-.64.14-.92.68-1.63,1.2-3.28,1.35-5.07.12-1.43.51-2.81,1.83-3.75.4-.29.68-.89.8-1.4.35-1.49,1.1-2.71,2.18-3.78.38-.37.76-.85.9-1.35.26-.91.24-1.9.53-2.79.3-.92.63-2.19,1.32-2.54.97-.48,1.12-.98,1.11-1.85,0-.47.14-.94.21-1.42-.54.1-1.1.12-1.61.29Zm-30.3,50.43c-.05-.02-.06-.12-.08-.18.06-.02.14-.08.18-.06.05.02.06.11.08.18-.06.02-.14.08-.18.06Zm5.9-21.25c.56.95.19,1.63-.29,2.48-.43.76-.45,1.74-.67,2.62-.36,1.48-.77,2.95-1.09,4.44-.14.63-.24,1.32-.13,1.94.42,2.24-.68,5.24-2.45,6.61-.48.37-.76,1.01-1.25,1.37-.88.63-1.92,1.1-1.21,2.48-.33.06-.76.29-.97.16-.74-.46-1.18-.14-1.74.35-.32.28-.96.42-1.36.3-.32-.09-.69-.69-.68-1.05.03-.98-.39-1.48-1.29-1.62-.68-.11-.9-.37-.6-1.04,1.3-2.94,2.45-5.95,3.9-8.81.93-1.84,2.28-3.47,3.45-5.19.1-.15.2-.31.28-.47.98-1.77,1.89-3.59,2.96-5.3.57-.92,1.41-1.67,2.17-2.46.1-.11.55-.09.63.02.3.41.51.89.77,1.37-.15.25-.33.46-.38.69-.08.37-.21.84-.05,1.11Z"/>
      <path class="cls-16" d="m13.02,193.49c-.44,2.67-.36,5.42-1.37,8.01-.25.64.11,1.53.24,2.3.04.24.29.43.37.67.22.69.27,1.54,1.3,1.49,1.28-.06,2.43-.01,3.4-1.37.91-1.27,1.58-2.92,3.62-3.29,1.35-.24,2.55-1.32,3.82-2.02-.39.64-.68,1.38-1.19,1.91-1.12,1.17-2.28,2.31-3.53,3.33-2.03,1.66-4.4,2.43-7.01,2.06-1.35-.19-1.85-1.55-2.02-2.63-.25-1.61-.18-3.29-.03-4.92.14-1.49.56-2.96.85-4.43.3-.37.59-.74.89-1.11.22,0,.44,0,.67,0Z"/>
      <path class="cls-17" d="m13.02,193.49c-.22,0-.44,0-.67,0,.34-2.75.88-5.44,2.28-7.87.19-.32.55-.54.83-.81.38,1.89-.16,3.63-.87,5.33-.47,1.14-1.05,2.24-1.58,3.36Z"/>
      <path class="cls-5" d="m55.81,161.84c1.31-1.72,2.61-3.45,3.93-5.15.52-.67,1.13-1.27,1.62-1.95,1.28-1.76,2.52-3.55,3.78-5.31,2.04-2.85,4.16-5.63,6.11-8.54,2.09-3.11,4.05-6.32,6.01-9.51.41-.67.59-1.49.87-2.24-1.32-.61-1.34-.98-.5-2.17,1.08-1.52,2.14-3.08,3.07-4.69,1.45-2.52,2.81-5.09,4.17-7.66.61-1.16.94-2.53,1.75-3.5,1.23-1.46,1.63-3.18,2.22-4.87.08-.24.2-.56.4-.65,2.24-1.09,2.94-3.46,4.41-5.17-.26-.74-.68-.79-1.32-.57-1.46.5-2.95.92-4.43,1.38.13-.15.25-.43.39-.44,1.23-.1,1.39-1.5,2.36-1.91.09-.04.14-.34.1-.5-.44-2.16.6-3.56,2.32-4.63,1.34-.83,2.67-1.66,4.02-2.46.3-.18.69-.21,1.04-.31.68.66.39,1.51.29,2.23-.1.74-.61,1.42-.79,2.16-.27,1.14-.36,2.31-.63,3.45-.26,1.1-.59,2.19-.99,3.24-.36.93-.91,1.78-1.28,2.7-.1.25.05.72.25.93.13.13.57.02.85-.05.64-.18,1.28-.41,1.92-.62.47,1.65-.18,2.92-.73,4.21-.46,1.06-.88,2.1-.53,3.31.17.59-.89,2.55-1.44,2.69-1.48.36-1.84,1.57-2.26,2.78-.23.66-.43,1.45-.91,1.88-.91.82-1.48,1.76-2.04,2.84-.86,1.65-2.01,3.16-3.08,4.7-1.13,1.63-2.18,3.34-3.5,4.79-2.41,2.64-4.82,5.25-6.88,8.18-.86,1.22-2.12,2.15-3.15,3.25-2.68,2.87-5.34,5.75-7.97,8.66-.63.7-1.07,1.57-1.64,2.33-.37.5-.85.91-1.24,1.39-1.32,1.64-2.62,3.3-3.92,4.95-.57.54-1.13,1.1-1.71,1.62-.36.33-.76.61-1.14.91-.08-.08-.16-.16-.23-.24.14-.47.27-.94.41-1.4Z"/>
      <path class="cls-17" d="m25.73,197.95c.06-.17.08-.38.19-.5,2.07-2.18,4.18-4.32,6.21-6.53.66-.72,1.12-1.63,1.69-2.44.46-.66.9-1.34,1.43-1.93.9-1.01,1.88-1.94,2.77-2.95.17-.19.07-.62.1-.93.06-.53-.05-1.19.22-1.58,1.37-2.01,2.83-3.95,4.26-5.92.19-.26.34-.55.5-.83.86-.01.7.52.57,1.05-.13.53-.15,1.11-.38,1.59-.35.74-.83,1.43-1.28,2.12-.81,1.24-1.65,2.47-2.47,3.7-.37.61-.82,1.18-1.1,1.82-.84,1.94-2.5,3.15-3.89,4.62-1.62,1.71-3.25,3.42-4.89,5.11-1.1,1.13-2.22,2.24-3.35,3.34-.14.14-.39.18-.58.27Z"/>
      <path class="cls-17" d="m25.05,198.83c.23-.29.45-.59.68-.88-.23.29-.45.59-.68.88Z"/>
      <path class="cls-3" d="m31.79,161.87c-.14.25-.33.46-.38.69-.08.36-.21.84-.05,1.1.56.95.19,1.63-.29,2.49-.42.76-.45,1.74-.67,2.62-.36,1.48-.77,2.95-1.09,4.44-.14.63-.24,1.32-.13,1.94.42,2.24-.68,5.24-2.46,6.61-.48.37-.76,1.01-1.25,1.37-.88.63-1.92,1.11-1.21,2.48-.33.06-.76.29-.97.16-.74-.45-1.18-.14-1.74.35-.32.28-.96.42-1.36.3-.32-.09-.69-.69-.68-1.05.03-.98-.4-1.48-1.29-1.62-.68-.11-.9-.37-.6-1.04,1.3-2.94,2.45-5.95,3.9-8.81.93-1.84,2.29-3.47,3.45-5.19.1-.15.2-.31.29-.47.98-1.77,1.88-3.59,2.96-5.3.57-.92,1.41-1.67,2.17-2.46.1-.11.55-.09.63.03.3.41.5.89.76,1.37Z"/>
      <path class="cls-3" d="m25.64,184.86c-.06.02-.14.08-.19.06-.04-.02-.05-.12-.08-.18.06-.02.14-.08.19-.06.04.02.05.12.08.18Z"/>
    </g>
  </g>
</svg>