<?xml version="1.0" encoding="UTF-8"?>
<svg id="Livello_2" data-name="Livello 2" xmlns="http://www.w3.org/2000/svg" viewBox="0 0 182.75 182.75">
  <defs>
    <style>
      .cls-1 {
        fill: #dadada;
      }

      .cls-2 {
        fill: #1d1d1b;
        opacity: .8;
      }
    </style>
  </defs>
  <g id="Livello_1-2" data-name="Livello 1">
    <path class="cls-1" d="m182.75,91.37c0,4.12-.27,8.17-.8,12.14-1.17,8.85-3.62,17.3-7.13,25.16-2.16,4.82-4.72,9.43-7.65,13.76-16.43,24.33-44.25,40.32-75.8,40.32-22.48,0-43.06-8.12-58.98-21.59-8.39-7.09-15.48-15.68-20.86-25.34C4.18,122.66,0,107.5,0,91.37c0-12.39,2.47-24.2,6.94-34.97,3.47-8.38,8.16-16.13,13.83-23.04,11.41-13.87,26.83-24.32,44.49-29.56,8.27-2.48,17.04-3.8,26.11-3.8,38.08,0,70.72,23.29,84.44,56.4,3.3,7.94,5.51,16.44,6.44,25.33.33,3.17.5,6.38.5,9.64Z"/>
    <path class="cls-2" d="m182.75,91.37c0,4.12-.27,8.17-.8,12.14-1.17,8.85-3.62,17.3-7.13,25.16-2.16,4.82-4.72,9.43-7.65,13.76-8.28,2.47-17.05,3.79-26.13,3.79-22.48,0-43.06-8.12-58.98-21.59-8.39-7.09-15.48-15.68-20.86-25.34-7.35-13.16-11.53-28.32-11.53-44.45,0-12.39,2.47-24.2,6.94-34.97,2.35-5.67,5.25-11.05,8.65-16.07,8.27-2.48,17.04-3.8,26.11-3.8,38.08,0,70.72,23.29,84.44,56.4,3.3,7.94,5.51,16.44,6.44,25.33.33,3.17.5,6.38.5,9.64Z"/>
  </g>
</svg>